<?xml version="1.0" encoding="utf-8"?>
<!-- Generator: Adobe Illustrator 21.0.0, SVG Export Plug-In . SVG Version: 6.00 Build 0)  -->
<svg version="1.1" id="Слой_3" xmlns="http://www.w3.org/2000/svg" xmlns:xlink="http://www.w3.org/1999/xlink" x="0px" y="0px"
	 viewBox="0 0 20 20" style="enable-background:new 0 0 20 20;" xml:space="preserve">
<style type="text/css">
	.st0{fill-rule:evenodd;clip-rule:evenodd;fill:#3C5A99;}
</style>
<g>
	<path class="st0" d="M7.8,10.1v7.7C7.8,17.9,7.9,18,8,18h2.9c0.1,0,0.2-0.1,0.2-0.2V9.9h2.1c0.1,0,0.2-0.1,0.2-0.2l0.2-2.4
		c0-0.1-0.1-0.2-0.2-0.2h-2.3V5.5c0-0.4,0.3-0.7,0.7-0.7h1.6c0.1,0,0.2-0.1,0.2-0.2V2.2c0-0.1-0.1-0.2-0.2-0.2h-2.7
		C9.1,2,7.8,3.3,7.8,4.9v2.3H6.4c-0.1,0-0.2,0.1-0.2,0.2v2.4c0,0.1,0.1,0.2,0.2,0.2h1.4V10.1z"/>
</g>
</svg>
