<?xml version="1.0" encoding="utf-8"?>
<!-- Generator: Adobe Illustrator 21.0.0, SVG Export Plug-In . SVG Version: 6.00 Build 0)  -->
<svg version="1.1" id="Слой_4" xmlns="http://www.w3.org/2000/svg" xmlns:xlink="http://www.w3.org/1999/xlink" x="0px" y="0px"
	 viewBox="0 0 20 20" style="enable-background:new 0 0 20 20;" xml:space="preserve">
<style type="text/css">
	.st0{fill:url(#SVGID_1_);}
	.st1{fill:url(#SVGID_2_);}
	.st2{fill:url(#SVGID_3_);}
</style>
<g>
	<g>
		
			<radialGradient id="SVGID_1_" cx="1.5568" cy="19.5535" r="22.8801" gradientTransform="matrix(1 0 0 1 0.5332 0)" gradientUnits="userSpaceOnUse">
			<stop  offset="0" style="stop-color:#FEC053"/>
			<stop  offset="0.3273" style="stop-color:#F2203E"/>
			<stop  offset="0.6485" style="stop-color:#B729A8"/>
			<stop  offset="1" style="stop-color:#5342D6"/>
		</radialGradient>
		<path class="st0" d="M13.4,18H6.6C4,18,2,16,2,13.4V6.6C2,4,4,2,6.6,2h6.9C16,2,18,4,18,6.6v6.9C18,16,16,18,13.4,18z M6.6,3.4
			c-1.8,0-3.2,1.4-3.2,3.2v6.9c0,1.8,1.4,3.2,3.2,3.2h6.9c1.8,0,3.2-1.4,3.2-3.2V6.6c0-1.8-1.4-3.2-3.2-3.2H6.6z"/>
	</g>
	<g>
		
			<radialGradient id="SVGID_2_" cx="1.5568" cy="19.5535" r="22.8802" gradientTransform="matrix(1 0 0 1 0.5332 0)" gradientUnits="userSpaceOnUse">
			<stop  offset="0" style="stop-color:#FEC053"/>
			<stop  offset="0.3273" style="stop-color:#F2203E"/>
			<stop  offset="0.6485" style="stop-color:#B729A8"/>
			<stop  offset="1" style="stop-color:#5342D6"/>
		</radialGradient>
		<path class="st1" d="M10,14.1c-2.3,0-4.1-1.8-4.1-4.1c0-2.3,1.8-4.1,4.1-4.1c2.3,0,4.1,1.8,4.1,4.1C14.1,12.3,12.3,14.1,10,14.1z
			 M10,7.3c-1.5,0-2.7,1.2-2.7,2.7s1.2,2.7,2.7,2.7s2.7-1.2,2.7-2.7S11.5,7.3,10,7.3z"/>
	</g>
	<g>
		
			<radialGradient id="SVGID_3_" cx="1.5568" cy="19.5532" r="22.8799" gradientTransform="matrix(1 0 0 1 0.5332 0)" gradientUnits="userSpaceOnUse">
			<stop  offset="0" style="stop-color:#FEC053"/>
			<stop  offset="0.3273" style="stop-color:#F2203E"/>
			<stop  offset="0.6485" style="stop-color:#B729A8"/>
			<stop  offset="1" style="stop-color:#5342D6"/>
		</radialGradient>
		<circle class="st2" cx="14.3" cy="5.7" r="1"/>
	</g>
</g>
</svg>
