<?xml version="1.0" encoding="utf-8"?>
<!-- Generator: Adobe Illustrator 21.0.0, SVG Export Plug-In . SVG Version: 6.00 Build 0)  -->
<svg version="1.1" id="Layer_1" xmlns="http://www.w3.org/2000/svg" xmlns:xlink="http://www.w3.org/1999/xlink" x="0px" y="0px"
	 viewBox="0 0 307 88" style="enable-background:new 0 0 307 88;" xml:space="preserve">
<style type="text/css">
	.st0{fill:#2D4878;}
</style>
<g id="Слой_2">
</g>
<g>
	<g>
		<path class="st0" d="M210.9,34.5c0-3,0.2-5.9,3-8.5c1.7-1.6,4-2.6,7-2.6s5.3,1,7,2.6c2.7,2.6,3,5.5,3,8.5v18.9c0,3-0.2,5.9-3,8.5
			c-1.7,1.6-4,2.6-7,2.6s-5.3-1-7-2.6c-2.7-2.6-3-5.5-3-8.5V34.5z M225.1,33.6c0-1.2-0.1-2.4-1.2-3.5c-0.6-0.6-1.7-1.1-3.1-1.1
			s-2.4,0.5-3.1,1.1c-1.1,1.1-1.2,2.3-1.2,3.5v20.6c0,1.2,0.1,2.4,1.2,3.5c0.6,0.6,1.7,1.1,3.1,1.1s2.4-0.5,3.1-1.1
			c1.1-1.1,1.2-2.3,1.2-3.5V33.6z"/>
		<path class="st0" d="M245.1,24c1.7,0,5,0.2,7.5,1.9c3.6,2.6,3.6,6.8,3.6,9.2c0,2.6-0.2,4.4-1.7,6.2c-0.7,0.9-1.6,1.5-2.2,1.8
			c1.5,0.7,2.2,1.7,2.7,2.5c1.1,2,1.1,3.1,1.1,5v3c0,1.7,0,5.8-3.4,8.3c-1.3,1-3.4,1.9-6.8,1.9h-8.7V24H245.1z M243.1,40.5h2.7
			c1.9,0,3.1-0.8,3.6-1.5c0.7-0.8,1.1-2.2,1.1-3.4v-2.4c0-1-0.5-2-1.1-2.7c-0.7-0.7-1.8-1.3-3.7-1.3h-2.7V40.5z M243.1,58.7h2.6
			c0.9,0,2.7-0.1,3.9-1.8c1-1.3,1-3.4,1-4V51c0-1.9-0.3-3.3-1.5-4.4c-0.9-0.7-1.8-1-3-1h-2.9V58.7z"/>
		<path class="st0" d="M262.3,34.5c0-3,0.2-5.9,3-8.5c1.7-1.6,4-2.6,7-2.6s5.3,1,7,2.6c2.7,2.6,3,5.5,3,8.5v18.9c0,3-0.2,5.9-3,8.5
			c-1.7,1.6-4,2.6-7,2.6s-5.3-1-7-2.6c-2.7-2.6-3-5.5-3-8.5V34.5z M276.5,33.6c0-1.2-0.1-2.4-1.2-3.5c-0.6-0.6-1.7-1.1-3.1-1.1
			s-2.4,0.5-3.1,1.1c-1.1,1.1-1.2,2.3-1.2,3.5v20.6c0,1.2,0.1,2.4,1.2,3.5c0.6,0.6,1.7,1.1,3.1,1.1s2.4-0.5,3.1-1.1
			c1.1-1.1,1.2-2.3,1.2-3.5V33.6z"/>
		<path class="st0" d="M305.9,24v4.4l-12,30.4h11.7v5.1H288v-5l11.7-29.7h-10.9V24H305.9z"/>
	</g>
	<g>
		<path class="st0" d="M17.7,63.9l-1.9-8.5H8.6l-1.9,8.5H1L9.7,24h5l8.7,39.8H17.7z M12.1,35.1l-3,15.1h6L12.1,35.1z"/>
		<path class="st0" d="M31.7,24v30.2c0,2.7,1.3,4.6,3.8,4.6c2.5,0,3.8-1.9,3.8-4.6V24H45v29.4c0,8.8-5.2,11-9.5,11
			c-4.3,0-9.5-2.3-9.5-11V24H31.7z"/>
		<path class="st0" d="M69.3,24v5.4h-7.1v34.4h-5.7V29.4h-7.1V24H69.3z"/>
		<path class="st0" d="M72.3,34.5c0-3,0.2-5.9,3-8.5c1.7-1.6,4-2.6,7-2.6c3,0,5.3,1,7,2.6c2.7,2.6,3,5.5,3,8.5v18.9
			c0,3-0.2,5.9-3,8.5c-1.7,1.6-4,2.6-7,2.6c-3,0-5.3-1-7-2.6c-2.7-2.6-3-5.5-3-8.5V34.5z M86.5,33.7c0-1.2-0.1-2.4-1.2-3.5
			c-0.6-0.6-1.7-1.1-3.1-1.1s-2.4,0.5-3.1,1.1c-1.1,1.1-1.2,2.3-1.2,3.5v20.6c0,1.2,0.1,2.4,1.2,3.5c0.6,0.6,1.7,1.1,3.1,1.1
			s2.4-0.5,3.1-1.1c1.1-1.1,1.2-2.3,1.2-3.5V33.7z"/>
	</g>
	<path class="st0" d="M151.9,1.8c-23.3,0-42.1,18.9-42.1,42.1c0,23.3,18.9,42.1,42.1,42.1c23.3,0,42.1-18.9,42.1-42.1
		C194,20.7,175.2,1.8,151.9,1.8z M177,45.1c-0.7,13.4-11.7,24-25.3,24c-14,0-25.3-11.3-25.3-25.3c0-5.5,1.7-10.6,4.7-14.7
		c1.3-1.8,3.1-2,3.6-1.9c0,0,0.2,0.4,0.5,1.1c0.3,0.7,0.7,1.1,1.2,1.1c0.7,0,1.3-0.7,1.9-2.1c0.7-1.8,1.6-3,2.4-3.7
		c0.9-0.7,1.7-1.2,2.6-1.5c0.3-0.1,0.6-0.1,0.9-0.2c0.4-0.1,0.7-0.3,0.7-0.5c0-0.5-0.2-0.9-0.7-1.3c2.1-0.9,4.8-1.4,8-1.4
		c2.9,0,4.5,0.4,4.5,0.4c2.2,0.6,3.8,1.6,3.7,2.3c-0.1,0.7-1.1,1.1-2.2,0.9c-1.1-0.2-3,0.7-4.2,1.8c-1.2,1.1-2,2.5-1.8,3
		c0.2,0.5,0.7,1.1,0.9,1.1c0.3,0.1,0.6,0.4,0.8,0.7c0.2,0.3,0.6,0.4,0.8,0.2c0.3-0.2,0.5-0.7,0.4-1.3c0-0.5,0.5-1.4,1.2-1.9
		c0.7-0.5,1.2-0.2,1.2,0.7c0,0.9-0.4,2.1-0.9,2.6c-0.4,0.6-1.6,1.4-2.6,1.8c-1,0.4-4.1-0.1-4.9,1c-0.5,0.7,1.1,1.4,0.1,1.9
		c-0.6,0.3-1.3,0-1.6,0.6c-0.3,0.6-0.5,1.7,0,2.1c0.6,0.6,2.4-0.2,2.5-0.9c0.1-0.8,0.8-0.8,1.3-0.7c0.5,0.1,1.2-0.1,1.5-0.4
		c0.3-0.3,1-0.3,1.4,0c0.4,0.3,1,1,1.1,1.6c0.2,0.5,0.3,0.9-0.4,1.3c-0.3,0.2-0.2,0.5,0.1,0.6c0.3,0.2,1.2,0.1,1.5-0.1
		c0.3-0.2,0.5-0.8,0.6-1.1c0.1-0.3,0.6-0.1,0.9-0.2c0.3-0.2,0.1-0.3-0.3-0.9c-0.5-0.6-1.4-0.8-1.5-1.9c-0.1-0.4,0.9-0.5,1.9-0.5
		c0.9,0,1.9,1,2.1,2.2c0.2,1.2,0.7,2.1,1.1,2.1c0.4,0,0.4,2-0.3,2.2c-0.7,0.2-2.3,0.3-3.6-0.1c-2.3-0.6-5-1.2-5.8-1.3
		c-0.9-0.1-1.6-0.8-2.3-0.9c-1.4-0.2-3.1,1.3-3.1,1.3c-1.8,0.6-3,1.9-3.3,3c-0.2,1.1-0.1,2.7,0.2,3.5c0.3,0.8,1.7,1.7,3,2
		c1.3,0.3,3.3,1.9,4.5,3.6c0.9,3.6,1.3,6.6,1.3,6.6c0.3,2.3,1,4.5,1.7,4.9c0.7,0.5,3.7-0.2,4.7-2.2c1.1-2,0.7-7.4,1-8.5
		c0.3-1,3.3-3.3,3.5-4.3c0.2-0.9-0.2-2.2-0.2-2.2c-0.9-2.1-1.5-3.9-1.3-4c0.2-0.1,0.8,0.8,1.3,2.1c0.5,1.2,1.8,2,2.7,1.6
		c1-0.4,1.1-1.8,0.4-3.3c2.3-0.2,4.6-0.2,6.6,0c2,0.2,3.7,1,4.1,1.4C177.1,44.3,177,45.1,177,45.1z"/>
</g>
</svg>
