<?xml version="1.0" encoding="utf-8"?>
<!-- Generator: Adobe Illustrator 21.0.0, SVG Export Plug-In . SVG Version: 6.00 Build 0)  -->
<svg version="1.1" id="Layer_1" xmlns="http://www.w3.org/2000/svg" xmlns:xlink="http://www.w3.org/1999/xlink" x="0px" y="0px"
	 viewBox="0 0 322.2 88.5" style="enable-background:new 0 0 322.2 88.5;" xml:space="preserve">
<style type="text/css">
	.st0{fill:#2D4878;}
</style>
<g id="Слой_2">
</g>
<g>
	<path class="st0" d="M165.8,2.1c-23.3,0-42.1,18.9-42.1,42.1c0,23.3,18.9,42.1,42.1,42.1c23.3,0,42.1-18.9,42.1-42.1
		C208,21,189.1,2.1,165.8,2.1z M191,45.4c-0.7,13.4-11.7,24-25.3,24c-14,0-25.3-11.3-25.3-25.3c0-5.5,1.7-10.6,4.7-14.7
		c1.3-1.8,3.1-2,3.6-1.9c0,0,0.2,0.4,0.5,1.1c0.3,0.7,0.7,1.1,1.2,1.1c0.7,0,1.3-0.7,1.9-2.1c0.7-1.8,1.6-3,2.4-3.7
		c0.9-0.7,1.7-1.2,2.6-1.5c0.3-0.1,0.6-0.1,0.9-0.2c0.4-0.1,0.7-0.3,0.7-0.5c0-0.5-0.2-0.9-0.7-1.3c2.1-0.9,4.8-1.4,8-1.4
		c2.9,0,4.5,0.4,4.5,0.4c2.2,0.6,3.8,1.6,3.7,2.3c-0.1,0.7-1.1,1.1-2.2,0.9c-1.1-0.2-3,0.7-4.2,1.8c-1.2,1.1-2,2.5-1.8,3
		c0.2,0.5,0.7,1.1,0.9,1.1c0.3,0.1,0.6,0.4,0.8,0.7c0.2,0.3,0.6,0.4,0.8,0.2c0.3-0.2,0.5-0.7,0.4-1.3c0-0.5,0.5-1.4,1.2-1.9
		c0.7-0.5,1.2-0.2,1.2,0.7c0,0.9-0.4,2.1-0.9,2.6c-0.4,0.6-1.6,1.4-2.6,1.8c-1,0.4-4.1-0.1-4.9,1c-0.5,0.7,1.1,1.4,0.1,1.9
		c-0.6,0.3-1.3,0-1.6,0.6c-0.3,0.6-0.5,1.7,0,2.1c0.6,0.6,2.4-0.2,2.5-0.9c0.1-0.8,0.8-0.8,1.3-0.7c0.5,0.1,1.2-0.1,1.5-0.4
		c0.3-0.3,1-0.3,1.4,0c0.4,0.3,1,1,1.1,1.6c0.2,0.5,0.3,0.9-0.4,1.3c-0.3,0.2-0.2,0.5,0.1,0.6c0.3,0.2,1.2,0.1,1.5-0.1
		c0.3-0.2,0.5-0.8,0.6-1.1c0.1-0.3,0.6-0.1,0.9-0.2c0.3-0.2,0.1-0.3-0.3-0.9c-0.5-0.6-1.4-0.8-1.5-1.9c-0.1-0.4,0.9-0.5,1.9-0.5
		c0.9,0,1.9,1,2.1,2.2c0.2,1.2,0.7,2.1,1.1,2.1c0.4,0,0.4,2-0.3,2.2c-0.7,0.2-2.3,0.3-3.6-0.1c-2.3-0.6-5-1.2-5.8-1.3
		c-0.9-0.1-1.6-0.8-2.3-0.9c-1.4-0.2-3.1,1.3-3.1,1.3c-1.8,0.6-3,1.9-3.3,3c-0.2,1.1-0.1,2.7,0.2,3.5c0.3,0.8,1.7,1.7,3,2
		c1.3,0.3,3.3,1.9,4.5,3.6c0.9,3.6,1.3,6.6,1.3,6.6c0.3,2.3,1,4.5,1.7,4.9c0.7,0.5,3.7-0.2,4.7-2.2c1.1-2,0.7-7.4,1-8.5
		c0.3-1,3.3-3.3,3.5-4.3c0.2-0.9-0.2-2.2-0.2-2.2c-0.9-2.1-1.5-3.9-1.3-4c0.2-0.1,0.8,0.8,1.3,2.1c0.5,1.2,1.8,2,2.7,1.6
		c1-0.4,1.1-1.8,0.4-3.3c2.3-0.2,4.6-0.2,6.6,0c2,0.2,3.7,1,4.1,1.4C191,44.6,191,45.4,191,45.4z"/>
	<path class="st0" d="M224.8,34.8c0-3,0.2-5.9,3-8.5c1.7-1.6,4-2.6,7-2.6s5.3,1,7,2.6c2.7,2.6,3,5.5,3,8.5v18.9c0,3-0.2,5.9-3,8.5
		c-1.7,1.6-4,2.6-7,2.6s-5.3-1-7-2.6c-2.7-2.6-3-5.5-3-8.5V34.8z M239.1,33.9c0-1.2-0.1-2.4-1.2-3.5c-0.6-0.6-1.7-1.1-3.1-1.1
		s-2.4,0.5-3.1,1.1c-1.1,1.1-1.2,2.3-1.2,3.5v20.6c0,1.2,0.1,2.4,1.2,3.5c0.6,0.6,1.7,1.1,3.1,1.1s2.4-0.5,3.1-1.1
		c1.1-1.1,1.2-2.3,1.2-3.5V33.9z"/>
	<path class="st0" d="M259,24.3c1.7,0,5,0.2,7.5,1.9c3.6,2.6,3.6,6.8,3.6,9.2c0,2.6-0.2,4.4-1.7,6.2c-0.7,0.9-1.6,1.5-2.2,1.8
		c1.5,0.7,2.2,1.7,2.7,2.5c1.1,2,1.1,3.1,1.1,5v3c0,1.7,0,5.8-3.4,8.3c-1.3,1-3.4,1.9-6.8,1.9h-8.7V24.3H259z M257.1,40.8h2.7
		c1.9,0,3.1-0.8,3.6-1.5c0.7-0.8,1.1-2.2,1.1-3.4v-2.4c0-1-0.5-2-1.1-2.7c-0.7-0.7-1.8-1.3-3.7-1.3h-2.7V40.8z M257.1,59h2.6
		c0.9,0,2.7-0.1,3.9-1.8c1-1.3,1-3.4,1-4v-1.9c0-1.9-0.3-3.3-1.5-4.4c-0.9-0.7-1.8-1-3-1h-2.9V59z"/>
	<path class="st0" d="M276.2,34.8c0-3,0.2-5.9,3-8.5c1.7-1.6,4-2.6,7-2.6s5.3,1,7,2.6c2.7,2.6,3,5.5,3,8.5v18.9c0,3-0.2,5.9-3,8.5
		c-1.7,1.6-4,2.6-7,2.6s-5.3-1-7-2.6c-2.7-2.6-3-5.5-3-8.5V34.8z M290.5,33.9c0-1.2-0.1-2.4-1.2-3.5c-0.6-0.6-1.7-1.1-3.1-1.1
		s-2.4,0.5-3.1,1.1c-1.1,1.1-1.2,2.3-1.2,3.5v20.6c0,1.2,0.1,2.4,1.2,3.5c0.6,0.6,1.7,1.1,3.1,1.1s2.4-0.5,3.1-1.1
		c1.1-1.1,1.2-2.3,1.2-3.5V33.9z"/>
	<path class="st0" d="M319.9,24.3v4.4l-12,30.4h11.7v5.1h-17.7v-5l11.7-29.7h-10.9v-5.1H319.9z"/>
	<path class="st0" d="M16.3,34.1c0-0.9-0.1-2.5-1-3.7c-0.5-0.6-1.4-1.3-3-1.3c-0.8,0-1.9,0.2-2.8,1.1c-1.1,1.1-1.2,2.7-1.2,4.1
		c0,1.1,0.2,3.1,0.9,4.2c0.6,1,1.8,1.4,2.6,1.8l3.5,1.3c1.7,0.6,3.7,1.4,5.2,3.4c1.5,2.1,1.7,4.4,1.7,6.9v1.4c0,4.1-1.1,7.1-2.7,8.8
		c-1.5,1.5-4.1,2.6-7.4,2.6c-4.1,0-6.7-1.7-8-3.5c-1.8-2.5-1.8-6.2-1.8-6.7v-1.3H8v1.1c0,0.9,0.1,2.5,0.9,3.5c1,1.2,2.4,1.3,3.1,1.3
		c2.2,0,3.1-0.9,3.6-1.4c0.9-1.1,0.9-2.7,0.9-3.9v-1.5c0-1.4-0.2-3.1-0.9-4.1c-0.7-1-2.1-1.5-2.7-1.8l-4.2-1.5
		C6.7,44,4.7,43,3.5,40.3c-0.8-1.8-0.9-3.8-0.9-5.8v-1.1c0-3.3,1.3-5.8,3-7.4c1.9-1.8,4.3-2.5,6.9-2.5c5.7,0,9.5,3.7,9.5,10.3v1.3
		h-5.7V34.1z"/>
	<path class="st0" d="M34,24.1v17.2h7.7V24.1h5.7V64h-5.7V46.4H34V64h-5.7V24.1H34z"/>
	<path class="st0" d="M54,34.6c0-3,0.2-5.9,3-8.5c1.7-1.6,4.1-2.6,7-2.6s5.3,1,7,2.6c2.7,2.6,3,5.5,3,8.5v18.9c0,3-0.2,5.9-3,8.5
		c-1.7,1.6-4.1,2.6-7,2.6s-5.3-1-7-2.6c-2.7-2.6-3-5.5-3-8.5V34.6z M68.3,33.7c0-1.2-0.1-2.4-1.2-3.5c-0.6-0.6-1.7-1.1-3.1-1.1
		s-2.5,0.5-3.1,1.1c-1.1,1.1-1.2,2.3-1.2,3.5v20.7c0,1.2,0.1,2.4,1.2,3.5c0.6,0.6,1.7,1.1,3.1,1.1s2.5-0.5,3.1-1.1
		c1.1-1.1,1.2-2.3,1.2-3.5V33.7z"/>
	<path class="st0" d="M83.1,24.1l3.2,24.9h0.2l4.6-24.9h4.3l4.6,24.9h0.3l3.1-24.9h6L103.1,64H98l-4.6-25.8H93L88.5,64h-5.1
		l-6.3-39.9H83.1z"/>
</g>
</svg>
