<?xml version="1.0" encoding="utf-8"?>
<!-- Generator: Adobe Illustrator 21.0.0, SVG Export Plug-In . SVG Version: 6.00 Build 0)  -->
<svg version="1.1" id="Слой_1" xmlns="http://www.w3.org/2000/svg" xmlns:xlink="http://www.w3.org/1999/xlink" x="0px" y="0px"
	 viewBox="0 0 146.1 50.6" style="enable-background:new 0 0 146.1 50.6;" xml:space="preserve">
<style type="text/css">
	.st0{display:none;}
	.st1{display:inline;fill:#333333;}
	.st2{fill:#FF0000;}
	.st3{fill:#1C629C;}
	.st4{fill:#FFFFFF;}
</style>
<g id="Слой_2" class="st0">
	<rect x="-1251.5" y="-533.4" class="st1" width="2591" height="1164.5"/>
</g>
<rect x="107.7" y="9.3" class="st2" width="37.4" height="32.6"/>
<path class="st3" d="M104.2,9.3H81.6c-4.4-4.9-10.7-7.9-17.8-7.9c-7.1,0-13.4,3.1-17.8,7.9H1.5V42h44.9c4.4,4.6,10.5,7.4,17.4,7.4
	c6.8,0,13-2.9,17.4-7.4h23.1V9.3z"/>
<path class="st4" d="M12.5,12.5c-4.8,0-7.5,3-7.5,8.3V30c0,5.4,2.6,8.3,7.5,8.3c4.8,0,7.5-3,7.5-8.3v-9.2
	C19.9,15.5,17.3,12.5,12.5,12.5z M15.9,30c0,3.2-0.9,4.4-3.4,4.4c-2.4,0-3.4-1.2-3.4-4.4v-9.2c0-3.2,0.9-4.4,3.4-4.4
	c2.5,0,3.4,1.2,3.4,4.4V30z"/>
<path class="st4" d="M36.5,24.8c1.4-1.2,2.1-2.9,2.1-4.8c0-4.8-3-7.2-9-7.2l-6.1,0V31c0,4.5,3.2,7.5,8.1,7.5c4.9,0,8.1-3.1,8.1-7.7
	C39.7,28.3,38.6,26.1,36.5,24.8 M27.8,27.1h2.5c3.1,0,5,1.4,5,3.8c0,2.3-1.4,3.6-3.8,3.6c-2.4,0-3.7-1.3-3.7-3.6V27.1z M31,23.1
	h-0.9h-2.3v-6.5h1.7c3.4,0,4.7,0.9,4.7,3.3C34.2,21.9,33.1,23.1,31,23.1"/>
<polygon class="st4" points="100.8,38.6 87.9,38.6 94.9,16.8 87.9,16.8 87.9,12.7 100.8,12.7 93.6,34.5 100.8,34.5 "/>
<g>
	<path class="st4" d="M63.8,4.8c-11.4,0-20.6,9.2-20.6,20.6c0,11.4,9.2,20.6,20.6,20.6c11.4,0,20.6-9.2,20.6-20.6
		C84.4,14,75.2,4.8,63.8,4.8z M76.1,26c-0.3,6.5-5.7,11.7-12.3,11.7c-6.8,0-12.4-5.5-12.4-12.4c0-2.7,0.9-5.2,2.3-7.2
		c0.6-0.9,1.5-1,1.8-0.9c0,0,0.1,0.2,0.3,0.5c0.2,0.4,0.4,0.5,0.6,0.5c0.3,0,0.6-0.3,0.9-1c0.4-0.9,0.8-1.5,1.2-1.8
		c0.4-0.3,0.9-0.6,1.3-0.7c0.2,0,0.3-0.1,0.5-0.1c0.2-0.1,0.3-0.1,0.3-0.2c0-0.2-0.1-0.4-0.4-0.6c1-0.4,2.3-0.7,3.9-0.7
		c1.4,0,2.2,0.2,2.2,0.2c1.1,0.3,1.9,0.8,1.8,1.1C68,14.8,67.5,15,66.9,15c-0.5-0.1-1.5,0.3-2,0.9c-0.6,0.6-1,1.2-0.9,1.5
		c0.1,0.3,0.3,0.5,0.5,0.6c0.1,0,0.3,0.2,0.4,0.3c0.1,0.1,0.3,0.2,0.4,0.1c0.1-0.1,0.2-0.4,0.2-0.6c0-0.3,0.2-0.7,0.6-0.9
		c0.3-0.2,0.6-0.1,0.6,0.3c0,0.4-0.2,1-0.4,1.3c-0.2,0.3-0.8,0.7-1.3,0.9c-0.5,0.2-2-0.1-2.4,0.5c-0.3,0.4,0.5,0.7,0,0.9
		c-0.3,0.2-0.6,0-0.8,0.3c-0.2,0.3-0.2,0.8,0,1c0.3,0.3,1.2-0.1,1.2-0.4c0.1-0.4,0.4-0.4,0.6-0.3c0.2,0,0.6,0,0.7-0.2
		c0.2-0.2,0.5-0.2,0.7,0c0.2,0.2,0.5,0.5,0.6,0.8c0.1,0.3,0.2,0.5-0.2,0.7c-0.1,0.1-0.1,0.2,0.1,0.3c0.2,0.1,0.6,0,0.7,0
		c0.2-0.1,0.3-0.4,0.3-0.5c0-0.1,0.3,0,0.4-0.1c0.1-0.1,0.1-0.2-0.2-0.5c-0.2-0.3-0.7-0.4-0.7-0.9c0-0.2,0.4-0.3,0.9-0.2
		c0.5,0,0.9,0.5,1,1.1c0.1,0.6,0.3,1,0.5,1c0.2,0,0.2,1-0.2,1.1c-0.4,0.1-1.1,0.2-1.8,0c-1.1-0.3-2.5-0.6-2.8-0.6
		c-0.5-0.1-0.8-0.4-1.1-0.4c-0.7-0.1-1.5,0.6-1.5,0.6c-0.9,0.3-1.5,0.9-1.6,1.5c-0.1,0.6-0.1,1.3,0.1,1.7c0.2,0.4,0.8,0.8,1.5,1
		c0.6,0.2,1.6,0.9,2.2,1.8c0.5,1.8,0.6,3.2,0.6,3.2c0.1,1.1,0.5,2.2,0.8,2.4c0.3,0.2,1.8-0.1,2.3-1.1c0.5-1,0.3-3.6,0.5-4.1
		c0.1-0.5,1.6-1.6,1.7-2.1c0.1-0.5-0.1-1.1-0.1-1.1c-0.4-1-0.7-1.9-0.6-2c0.1-0.1,0.4,0.4,0.6,1c0.3,0.6,0.9,1,1.3,0.8
		c0.5-0.2,0.6-0.9,0.2-1.6c1.1-0.1,2.2-0.1,3.2,0c1,0.1,1.8,0.5,2,0.7C76.1,25.6,76.1,26,76.1,26z"/>
</g>
<g>
	<path class="st4" d="M111.1,12.7h14v4h-4.7v21.8h-4.6V16.8l-4.7,0V12.7z"/>
	<path class="st4" d="M125.7,12.7h4.8l3.3,18.6l3.3-18.6h4.7l-5.5,25.8h-5L125.7,12.7z"/>
</g>
</svg>
