<?xml version="1.0" encoding="utf-8"?>
<svg version="1.1" id="Layer_1" xmlns="http://www.w3.org/2000/svg" xmlns:xlink="http://www.w3.org/1999/xlink" x="0px" y="0px"
	 viewBox="0 0 330 85" style="enable-background:new 0 0 330 85;" xml:space="preserve">
<style type="text/css">
	.st0{fill:#2D4878;}
</style>
<g id="Слой_2">
</g>
<path class="st0" d="M175.8,0.7c-23.3,0-42.1,18.9-42.1,42.1c0,23.3,18.9,42.1,42.1,42.1c23.3,0,42.1-18.9,42.1-42.1
	C217.9,19.5,199.1,0.7,175.8,0.7z M200.9,43.9c-0.7,13.4-11.7,24-25.3,24c-14,0-25.3-11.3-25.3-25.3c0-5.5,1.7-10.6,4.7-14.7
	c1.3-1.8,3.1-2,3.6-1.9c0,0,0.2,0.4,0.5,1.1s0.7,1.1,1.2,1.1c0.7,0,1.3-0.7,1.9-2.1c0.7-1.8,1.6-3,2.4-3.7c0.9-0.7,1.7-1.2,2.6-1.5
	c0.3-0.1,0.6-0.1,0.9-0.2c0.4-0.1,0.7-0.3,0.7-0.5c0-0.5-0.2-0.9-0.7-1.3c2.1-0.9,4.8-1.4,8-1.4c2.9,0,4.5,0.4,4.5,0.4
	c2.2,0.6,3.8,1.6,3.7,2.3c-0.1,0.7-1.1,1.1-2.2,0.9c-1.1-0.2-3,0.7-4.2,1.8c-1.2,1.1-2,2.5-1.8,3s0.7,1.1,0.9,1.1
	c0.3,0.1,0.6,0.4,0.8,0.7c0.2,0.3,0.6,0.4,0.8,0.2c0.3-0.2,0.5-0.7,0.4-1.3c0-0.5,0.5-1.4,1.2-1.9s1.2-0.2,1.2,0.7
	c0,0.9-0.4,2.1-0.9,2.6c-0.4,0.6-1.6,1.4-2.6,1.8s-4.1-0.1-4.9,1c-0.5,0.7,1.1,1.4,0.1,1.9c-0.6,0.3-1.3,0-1.6,0.6s-0.5,1.7,0,2.1
	c0.6,0.6,2.4-0.2,2.5-0.9c0.1-0.8,0.8-0.8,1.3-0.7s1.2-0.1,1.5-0.4c0.3-0.3,1-0.3,1.4,0s1,1,1.1,1.6c0.2,0.5,0.3,0.9-0.4,1.3
	c-0.3,0.2-0.2,0.5,0.1,0.6c0.3,0.2,1.2,0.1,1.5-0.1c0.3-0.2,0.5-0.8,0.6-1.1s0.6-0.1,0.9-0.2c0.3-0.2,0.1-0.3-0.3-0.9
	c-0.5-0.6-1.4-0.8-1.5-1.9c-0.1-0.4,0.9-0.5,1.9-0.5c0.9,0,1.9,1,2.1,2.2c0.2,1.2,0.7,2.1,1.1,2.1c0.4,0,0.4,2-0.3,2.2
	s-2.3,0.3-3.6-0.1c-2.3-0.6-5-1.2-5.8-1.3c-0.9-0.1-1.6-0.8-2.3-0.9c-1.4-0.2-3.1,1.3-3.1,1.3c-1.8,0.6-3,1.9-3.3,3
	c-0.2,1.1-0.1,2.7,0.2,3.5s1.7,1.7,3,2s3.3,1.9,4.5,3.6c0.9,3.6,1.3,6.6,1.3,6.6c0.3,2.3,1,4.5,1.7,4.9c0.7,0.5,3.7-0.2,4.7-2.2
	c1.1-2,0.7-7.4,1-8.5c0.3-1,3.3-3.3,3.5-4.3c0.2-0.9-0.2-2.2-0.2-2.2c-0.9-2.1-1.5-3.9-1.3-4s0.8,0.8,1.3,2.1c0.5,1.2,1.8,2,2.7,1.6
	c1-0.4,1.1-1.8,0.4-3.3c2.3-0.2,4.6-0.2,6.6,0s3.7,1,4.1,1.4C201,43.2,200.9,43.9,200.9,43.9z"/>
<path class="st0" d="M234.8,33.3c0-3,0.2-5.9,3-8.5c1.7-1.6,4-2.6,7-2.6s5.3,1,7,2.6c2.7,2.6,3,5.5,3,8.5v18.9c0,3-0.2,5.9-3,8.5
	c-1.7,1.6-4,2.6-7,2.6s-5.3-1-7-2.6c-2.7-2.6-3-5.5-3-8.5V33.3z M249,32.5c0-1.2-0.1-2.4-1.2-3.5c-0.6-0.6-1.7-1.1-3.1-1.1
	s-2.4,0.5-3.1,1.1c-1.1,1.1-1.2,2.3-1.2,3.5v20.6c0,1.2,0.1,2.4,1.2,3.5c0.6,0.6,1.7,1.1,3.1,1.1s2.4-0.5,3.1-1.1
	c1.1-1.1,1.2-2.3,1.2-3.5V32.5z"/>
<path class="st0" d="M269,22.8c1.7,0,5,0.2,7.5,1.9c3.6,2.6,3.6,6.8,3.6,9.2c0,2.6-0.2,4.4-1.7,6.2c-0.7,0.9-1.6,1.5-2.2,1.8
	c1.5,0.7,2.2,1.7,2.7,2.5c1.1,2,1.1,3.1,1.1,5v3c0,1.7,0,5.8-3.4,8.3c-1.3,1-3.4,1.9-6.8,1.9h-8.7V22.8H269z M267,39.4h2.7
	c1.9,0,3.1-0.8,3.6-1.5c0.7-0.8,1.1-2.2,1.1-3.4V32c0-1-0.5-2.1-1.1-2.7c-0.7-0.7-1.8-1.3-3.7-1.3H267V39.4z M267,57.6h2.6
	c0.9,0,2.7-0.1,3.9-1.8c1-1.3,1-3.4,1-4v-1.9c0-1.9-0.3-3.3-1.5-4.4c-0.9-0.7-1.8-1-3-1H267V57.6z"/>
<path class="st0" d="M286.2,33.3c0-3,0.2-5.9,3-8.5c1.7-1.6,4-2.6,7-2.6c3,0,5.3,1,7,2.6c2.7,2.6,3,5.5,3,8.5v18.9
	c0,3-0.2,5.9-3,8.5c-1.7,1.6-4,2.6-7,2.6c-3,0-5.3-1-7-2.6c-2.7-2.6-3-5.5-3-8.5V33.3z M300.4,32.5c0-1.2-0.1-2.4-1.2-3.5
	c-0.6-0.6-1.7-1.1-3.1-1.1c-1.4,0-2.4,0.5-3.1,1.1c-1.1,1.1-1.2,2.3-1.2,3.5v20.6c0,1.2,0.1,2.4,1.2,3.5c0.6,0.6,1.7,1.1,3.1,1.1
	c1.4,0,2.4-0.5,3.1-1.1c1.1-1.1,1.2-2.3,1.2-3.5V32.5z"/>
<path class="st0" d="M329.8,22.8v4.4l-12,30.4h11.7v5.1h-17.7v-5L323.6,28h-10.9v-5.1H329.8z"/>
<path class="st0" d="M14,32.7c0-0.9-0.1-2.5-1-3.6c-0.5-0.6-1.4-1.3-3-1.3c-0.8,0-1.9,0.2-2.8,1.1C6.1,30,6,31.6,6,32.9
	C6.1,34,6.2,36,7,37.1c0.6,1,1.8,1.4,2.6,1.8l3.5,1.3c1.7,0.6,3.7,1.4,5.2,3.4c1.5,2.1,1.7,4.4,1.7,6.9v1.4c0,4-1.1,7.1-2.7,8.8
	c-1.5,1.5-4.1,2.6-7.4,2.6c-4,0-6.7-1.7-8-3.5C0,57.3,0,53.5,0,53v-1.3h5.7v1.1c0,0.9,0.1,2.5,0.9,3.5c1,1.2,2.4,1.3,3.1,1.3
	c2.2,0,3.1-0.9,3.6-1.4c0.9-1.1,0.9-2.7,0.9-3.9v-1.5c0-1.4-0.2-3.1-0.9-4.1s-2.1-1.5-2.7-1.8l-4.2-1.5c-2.1-0.7-4.1-1.8-5.2-4.4
	c-0.8-1.8-0.9-3.8-0.9-5.8v-1.1c0-3.3,1.3-5.8,3-7.4c1.9-1.8,4.3-2.4,6.9-2.4c5.7,0,9.5,3.7,9.5,10.3v1.3H14V32.7z"/>
<path class="st0" d="M25.9,22.8h8.5c2.4,0,5.5,0.1,8,2.6c2.6,2.7,2.9,6.1,2.9,9.1v1.1c0,2.2-0.2,5.5-2.4,8.1
	c-2.3,2.7-5.4,3.1-7.9,3.1h-3.4v15.8h-5.7C25.9,62.6,25.9,22.8,25.9,22.8z M31.6,41.7h3.1c1.1,0,2.6-0.2,3.8-1.5s1.1-2.7,1.1-4.1
	v-2.6c0-1.4,0.1-3.3-1.5-4.6c-1.3-1.1-2.9-1-4.4-1h-2L31.6,41.7L31.6,41.7z"/>
<path class="st0" d="M50.2,33.3c0-3,0.2-5.9,3-8.5c1.7-1.6,4-2.6,7-2.6s5.3,1,7,2.6c2.7,2.6,3,5.5,3,8.5v18.9c0,3-0.2,5.9-3,8.5
	c-1.7,1.6-4,2.6-7,2.6s-5.3-1-7-2.6c-2.7-2.6-3-5.5-3-8.5C50.2,52.2,50.2,33.3,50.2,33.3z M64.4,32.4c0-1.2-0.1-2.4-1.2-3.5
	c-0.6-0.6-1.7-1.1-3.1-1.1c-1.4,0-2.4,0.5-3.1,1.1c-1.1,1.1-1.2,2.3-1.2,3.5V53c0,1.2,0.1,2.4,1.2,3.5c0.6,0.6,1.7,1.1,3.1,1.1
	c1.4,0,2.4-0.5,3.1-1.1c1.1-1.1,1.2-2.3,1.2-3.5V32.4z"/>
<path class="st0" d="M84.1,22.8c2.9,0,7.1-0.2,9.8,3.1c1.3,1.6,2.1,4,2.1,6.9v3c0,2.6-0.9,5-2.1,6.3c-0.9,1-2,1.7-3,2l6.3,18.4h-5.9
	l-5.5-17.2h-3.4v17.2h-5.7V22.8H84.1z M82.4,40.3h3.2c1.3,0,2.4-0.3,3.5-1.3c1.1-1.1,1.2-2,1.2-3.6v-2.8c0-1.5-0.6-2.9-1.3-3.6
	c-1.1-1.1-2.5-1-3.7-1h-3v12.3H82.4z"/>
<path class="st0" d="M118.7,22.8v5.4h-7.1v34.5H106V28.2h-7.1v-5.4C98.9,22.8,118.7,22.8,118.7,22.8z"/>
</svg>
