<?xml version="1.0" encoding="utf-8"?>
<svg version="1.1" id="Layer_1" xmlns="http://www.w3.org/2000/svg" xmlns:xlink="http://www.w3.org/1999/xlink" x="0px" y="0px"
	 viewBox="0 0 321 85" style="enable-background:new 0 0 321 85;" xml:space="preserve">
<style type="text/css">
	.st0{fill:#2D4878;}
</style>
<g id="Слой_2">
</g>
<path class="st0" d="M166.4,0.7c-23.3,0-42.1,18.9-42.1,42.1c0,23.3,18.9,42.1,42.1,42.1c23.3,0,42.1-18.9,42.1-42.1
	C208.5,19.5,189.7,0.7,166.4,0.7z M191.5,43.9c-0.7,13.4-11.7,24-25.3,24c-13.9,0-25.2-11.3-25.2-25.3c0-5.5,1.7-10.6,4.7-14.7
	c1.3-1.8,3.1-2,3.6-1.9c0,0,0.2,0.4,0.5,1.1s0.7,1.1,1.2,1.1c0.7,0,1.3-0.7,1.9-2.1c0.7-1.8,1.6-3,2.4-3.7c0.9-0.7,1.7-1.2,2.6-1.5
	c0.3-0.1,0.6-0.1,0.9-0.2c0.4-0.1,0.7-0.3,0.7-0.5c0-0.5-0.2-0.9-0.7-1.3c2.1-0.9,4.8-1.4,8-1.4c2.9,0,4.5,0.4,4.5,0.4
	c2.2,0.6,3.8,1.6,3.7,2.3c-0.1,0.7-1.1,1.1-2.2,0.9c-1.1-0.2-3,0.7-4.2,1.8c-1.2,1.1-2,2.5-1.8,3s0.7,1.1,0.9,1.1
	c0.3,0.1,0.6,0.4,0.8,0.7c0.2,0.3,0.6,0.4,0.8,0.2c0.3-0.2,0.5-0.7,0.4-1.3c0-0.5,0.5-1.4,1.2-1.9s1.2-0.2,1.2,0.7
	c0,0.9-0.4,2.1-0.9,2.6c-0.4,0.6-1.6,1.4-2.6,1.8s-4.1-0.1-4.9,1c-0.5,0.7,1.1,1.4,0.1,1.9c-0.6,0.3-1.3,0-1.6,0.6s-0.5,1.7,0,2.1
	c0.6,0.6,2.4-0.2,2.5-0.9c0.1-0.8,0.8-0.8,1.3-0.7s1.2-0.1,1.5-0.4c0.3-0.3,1-0.3,1.4,0s1,1,1.1,1.6c0.2,0.5,0.3,0.9-0.4,1.3
	c-0.3,0.2-0.2,0.5,0.1,0.6c0.3,0.2,1.2,0.1,1.5-0.1c0.3-0.2,0.5-0.8,0.6-1.1s0.6-0.1,0.9-0.2c0.3-0.2,0.1-0.3-0.3-0.9
	c-0.5-0.6-1.4-0.8-1.5-1.9c-0.1-0.4,0.9-0.5,1.9-0.5c0.9,0,1.9,1,2.1,2.2c0.2,1.2,0.7,2.1,1.1,2.1c0.4,0,0.4,2-0.3,2.2
	s-2.3,0.3-3.6-0.1c-2.3-0.6-5-1.2-5.8-1.3c-0.9-0.1-1.6-0.8-2.3-0.9c-1.4-0.2-3.1,1.3-3.1,1.3c-1.8,0.6-3,1.9-3.3,3
	c-0.2,1.1-0.1,2.7,0.2,3.5s1.7,1.7,3,2s3.3,1.9,4.5,3.6c0.9,3.6,1.3,6.6,1.3,6.6c0.3,2.3,1,4.5,1.7,4.9c0.7,0.5,3.7-0.2,4.7-2.2
	c1.1-2,0.7-7.4,1-8.5c0.3-1,3.3-3.3,3.5-4.3c0.2-0.9-0.2-2.2-0.2-2.2c-0.9-2.1-1.5-3.9-1.3-4s0.8,0.8,1.3,2.1c0.5,1.2,1.8,2,2.7,1.6
	c1-0.4,1.1-1.8,0.4-3.3c2.3-0.2,4.6-0.2,6.6,0s3.7,1,4.1,1.4C191.6,43.2,191.5,43.9,191.5,43.9z"/>
<path class="st0" d="M225.4,33.3c0-3,0.2-5.9,3-8.5c1.7-1.6,4-2.6,7-2.6c3,0,5.3,1,7,2.6c2.7,2.6,3,5.5,3,8.5v18.9
	c0,3-0.2,5.9-3,8.5c-1.7,1.6-4,2.6-7,2.6c-3,0-5.3-1-7-2.6c-2.7-2.6-3-5.5-3-8.5V33.3z M239.6,32.5c0-1.2-0.1-2.4-1.2-3.5
	c-0.6-0.6-1.7-1.1-3.1-1.1c-1.4,0-2.4,0.5-3.1,1.1c-1.1,1.1-1.2,2.3-1.2,3.5v20.6c0,1.2,0.1,2.4,1.2,3.5c0.6,0.6,1.7,1.1,3.1,1.1
	c1.4,0,2.4-0.5,3.1-1.1c1.1-1.1,1.2-2.3,1.2-3.5V32.5z"/>
<path class="st0" d="M259.6,22.8c1.7,0,5,0.2,7.5,1.9c3.6,2.6,3.6,6.8,3.6,9.2c0,2.6-0.2,4.4-1.7,6.2c-0.7,0.9-1.6,1.5-2.2,1.8
	c1.5,0.7,2.2,1.7,2.7,2.5c1.1,2,1.1,3.1,1.1,5v3c0,1.7,0,5.8-3.4,8.3c-1.3,1-3.4,1.9-6.8,1.9h-8.7V22.8H259.6z M257.6,39.4h2.7
	c1.9,0,3.1-0.8,3.6-1.5c0.7-0.8,1.1-2.2,1.1-3.4V32c0-1-0.5-2.1-1.1-2.7c-0.7-0.7-1.8-1.3-3.7-1.3h-2.7V39.4z M257.6,57.6h2.6
	c0.9,0,2.7-0.1,3.9-1.8c1-1.3,1-3.4,1-4v-1.9c0-1.9-0.3-3.3-1.5-4.4c-0.9-0.7-1.8-1-3-1h-2.9V57.6z"/>
<path class="st0" d="M276.8,33.3c0-3,0.2-5.9,3-8.5c1.7-1.6,4-2.6,7-2.6s5.3,1,7,2.6c2.7,2.6,3,5.5,3,8.5v18.9c0,3-0.2,5.9-3,8.5
	c-1.7,1.6-4,2.6-7,2.6s-5.3-1-7-2.6c-2.7-2.6-3-5.5-3-8.5V33.3z M291,32.5c0-1.2-0.1-2.4-1.2-3.5c-0.6-0.6-1.7-1.1-3.1-1.1
	s-2.4,0.5-3.1,1.1c-1.1,1.1-1.2,2.3-1.2,3.5v20.6c0,1.2,0.1,2.4,1.2,3.5c0.6,0.6,1.7,1.1,3.1,1.1s2.4-0.5,3.1-1.1
	c1.1-1.1,1.2-2.3,1.2-3.5V32.5z"/>
<path class="st0" d="M320.4,22.8v4.4l-12,30.4h11.7v5.1h-17.7v-5L314.1,28h-10.9v-5.1H320.4z"/>
<path class="st0" d="M8.5,22.8c2.9,0,7.1-0.2,9.8,3.1c1.3,1.6,2.1,4,2.1,6.9v3c0,2.6-0.9,5-2.1,6.3c-0.9,1-2,1.7-3,2l6.3,18.4h-5.9
	l-5.5-17.2H6.7v17.2H1V22.8H8.5z M6.7,40.3H10c1.3,0,2.4-0.3,3.5-1.3c1.1-1.1,1.2-2,1.2-3.6v-2.8c0-1.5-0.6-2.9-1.3-3.6
	c-1.1-1.1-2.5-1-3.7-1h-3V40.3z"/>
<path class="st0" d="M39.7,62.6l-1.9-8.5h-7.3l-1.9,8.5H23l8.7-39.9h5l8.7,39.9H39.7z M34.1,33.9l-3,15.1h6L34.1,33.9z"/>
<path class="st0" d="M57.1,22.8c2.4,0,5.8,0.1,8.3,2.4c2.9,2.7,3.1,6.9,3.1,8.6v17.6c0,2.7-0.3,5.6-2.6,8.1c-2.5,2.7-5.8,3.1-8,3.1
	h-8.5V22.8H57.1z M55.1,57.1h2.6c1.2,0,2.7-0.2,3.8-1.4c1.2-1.3,1.3-3.4,1.3-4.7V33.4c0-1.1-0.2-2.6-1.1-3.7
	c-1.1-1.3-2.3-1.3-3.7-1.3h-2.9V57.1z"/>
<path class="st0" d="M80.8,22.8v39.9h-5.7V22.8H80.8z"/>
<path class="st0" d="M87.4,33.3c0-3,0.2-5.9,3-8.5c1.7-1.6,4-2.6,7-2.6c3,0,5.3,1,7,2.6c2.7,2.6,3,5.5,3,8.5v18.9c0,3-0.2,5.9-3,8.5
	c-1.7,1.6-4,2.6-7,2.6c-3,0-5.3-1-7-2.6c-2.7-2.6-3-5.5-3-8.5V33.3z M101.6,32.4c0-1.2-0.1-2.4-1.2-3.5c-0.6-0.6-1.7-1.1-3.1-1.1
	c-1.4,0-2.4,0.5-3.1,1.1c-1.1,1.1-1.2,2.3-1.2,3.5V53c0,1.2,0.1,2.4,1.2,3.5c0.6,0.6,1.7,1.1,3.1,1.1c1.4,0,2.4-0.5,3.1-1.1
	c1.1-1.1,1.2-2.3,1.2-3.5V32.4z"/>
</svg>
