<?xml version="1.0" encoding="utf-8"?>
<svg version="1.1" id="Layer_1" xmlns="http://www.w3.org/2000/svg" xmlns:xlink="http://www.w3.org/1999/xlink" x="0px" y="0px"
	 viewBox="0 0 308.9 92.5" style="enable-background:new 0 0 308.9 92.5;" xml:space="preserve">
<style type="text/css">.st0{fill:#2D4878;}</style>
<path class="st0" d="M151.5,5.1c-23.3,0-42.1,18.9-42.1,42.1c0,23.3,18.9,42.1,42.1,42.1c23.3,0,42.1-18.9,42.1-42.1
	C193.7,23.9,174.8,5.1,151.5,5.1z M176.6,48.3c-0.7,13.4-11.7,24-25.3,24c-14,0-25.3-11.3-25.3-25.3c0-5.5,1.7-10.6,4.7-14.7
	c1.3-1.8,3.1-2,3.6-1.9c0,0,0.2,0.4,0.5,1.1c0.3,0.7,0.7,1.1,1.2,1.1c0.7,0,1.3-0.7,1.9-2.1c0.7-1.8,1.6-3,2.4-3.7
	c0.9-0.7,1.7-1.2,2.6-1.5c0.3-0.1,0.6-0.1,0.9-0.2c0.4-0.1,0.7-0.3,0.7-0.5c0-0.5-0.2-0.9-0.7-1.3c2.1-0.9,4.8-1.4,8-1.4
	c2.9,0,4.5,0.4,4.5,0.4c2.2,0.6,3.8,1.6,3.7,2.3c-0.1,0.7-1.1,1.1-2.2,0.9c-1.1-0.2-3,0.7-4.2,1.8c-1.2,1.1-2,2.5-1.8,3
	c0.2,0.5,0.7,1.1,0.9,1.1c0.3,0.1,0.6,0.4,0.8,0.7c0.2,0.3,0.6,0.4,0.8,0.2c0.3-0.2,0.5-0.7,0.4-1.3c0-0.5,0.5-1.4,1.2-1.9
	c0.7-0.5,1.2-0.2,1.2,0.7c0,0.9-0.4,2.1-0.9,2.6c-0.4,0.6-1.6,1.4-2.6,1.8c-1,0.4-4.1-0.1-4.9,1c-0.5,0.7,1.1,1.4,0.1,1.9
	c-0.6,0.3-1.3,0-1.6,0.6c-0.3,0.6-0.5,1.7,0,2.1c0.6,0.6,2.4-0.2,2.5-0.9c0.1-0.8,0.8-0.8,1.3-0.7c0.5,0.1,1.2-0.1,1.5-0.4
	c0.3-0.3,1-0.3,1.4,0c0.4,0.3,1,1,1.1,1.6c0.2,0.5,0.3,0.9-0.4,1.3c-0.3,0.2-0.2,0.5,0.1,0.6c0.3,0.2,1.2,0.1,1.5-0.1
	c0.3-0.2,0.5-0.8,0.6-1.1c0.1-0.3,0.6-0.1,0.9-0.2c0.3-0.2,0.1-0.3-0.3-0.9c-0.5-0.6-1.4-0.8-1.5-1.9c-0.1-0.4,0.9-0.5,1.9-0.5
	c0.9,0,1.9,1,2.1,2.2c0.2,1.2,0.7,2.1,1.1,2.1c0.4,0,0.4,2-0.3,2.2c-0.7,0.2-2.3,0.3-3.6-0.1c-2.3-0.6-5-1.2-5.8-1.3
	c-0.9-0.1-1.6-0.8-2.3-0.9c-1.4-0.2-3.1,1.3-3.1,1.3c-1.8,0.6-3,1.9-3.3,3c-0.2,1.1-0.1,2.7,0.2,3.5c0.3,0.8,1.7,1.7,3,2
	c1.3,0.3,3.3,1.9,4.5,3.6c0.9,3.6,1.3,6.6,1.3,6.6c0.3,2.3,1,4.5,1.7,4.9c0.7,0.5,3.7-0.2,4.7-2.2c1.1-2,0.7-7.4,1-8.5
	c0.3-1,3.3-3.3,3.5-4.3c0.2-0.9-0.2-2.2-0.2-2.2c-0.9-2.1-1.5-3.9-1.3-4c0.2-0.1,0.8,0.8,1.3,2.1c0.5,1.2,1.8,2,2.7,1.6
	c1-0.4,1.1-1.8,0.4-3.3c2.3-0.2,4.6-0.2,6.6,0c2,0.2,3.7,1,4.1,1.4C176.7,47.6,176.6,48.3,176.6,48.3z"/>
<path class="st0" d="M210.5,37.7c0-3,0.2-5.9,3-8.5c1.7-1.6,4-2.6,7-2.6s5.3,1,7,2.6c2.7,2.6,3,5.5,3,8.5v18.9c0,3-0.2,5.9-3,8.5
	c-1.7,1.6-4,2.6-7,2.6s-5.3-1-7-2.6c-2.7-2.6-3-5.5-3-8.5V37.7z M224.7,36.9c0-1.2-0.1-2.4-1.2-3.5c-0.6-0.6-1.7-1.1-3.1-1.1
	s-2.4,0.5-3.1,1.1c-1.1,1.1-1.2,2.3-1.2,3.5v20.6c0,1.2,0.1,2.4,1.2,3.5c0.6,0.6,1.7,1.1,3.1,1.1s2.4-0.5,3.1-1.1
	c1.1-1.1,1.2-2.3,1.2-3.5V36.9z"/>
<path class="st0" d="M244.7,27.2c1.7,0,5,0.2,7.5,1.9c3.6,2.6,3.6,6.8,3.6,9.2c0,2.6-0.2,4.4-1.7,6.2c-0.7,0.9-1.6,1.5-2.2,1.8
	c1.5,0.7,2.2,1.7,2.7,2.5c1.1,2,1.1,3.1,1.1,5v3c0,1.7,0,5.8-3.4,8.3c-1.3,1-3.4,1.9-6.8,1.9H237V27.2H244.7z M242.7,43.8h2.7
	c1.9,0,3.1-0.8,3.6-1.5c0.7-0.8,1.1-2.2,1.1-3.4v-2.4c0-1-0.5-2-1.1-2.7c-0.7-0.7-1.8-1.3-3.7-1.3h-2.7V43.8z M242.7,62h2.6
	c0.9,0,2.7-0.1,3.9-1.8c1-1.3,1-3.4,1-4v-1.9c0-1.9-0.3-3.3-1.5-4.4c-0.9-0.7-1.8-1-3-1h-2.9V62z"/>
<path class="st0" d="M261.9,37.7c0-3,0.2-5.9,3-8.5c1.7-1.6,4-2.6,7-2.6s5.3,1,7,2.6c2.7,2.6,3,5.5,3,8.5v18.9c0,3-0.2,5.9-3,8.5
	c-1.7,1.6-4,2.6-7,2.6s-5.3-1-7-2.6c-2.7-2.6-3-5.5-3-8.5V37.7z M276.2,36.9c0-1.2-0.1-2.4-1.2-3.5c-0.6-0.6-1.7-1.1-3.1-1.1
	s-2.4,0.5-3.1,1.1c-1.1,1.1-1.2,2.3-1.2,3.5v20.6c0,1.2,0.1,2.4,1.2,3.5c0.6,0.6,1.7,1.1,3.1,1.1s2.4-0.5,3.1-1.1
	c1.1-1.1,1.2-2.3,1.2-3.5V36.9z"/>
<path class="st0" d="M305.5,27.2v4.4l-12,30.4h11.7v5.1h-17.7v-5l11.7-29.7h-10.9v-5.1H305.5z"/>
<path class="st0" d="M12.1,27.1c1.7,0,4.9,0.2,7.4,1.9c3.5,2.5,3.6,6.7,3.6,9c0,2.6-0.2,4.4-1.7,6.1c-0.7,0.9-1.6,1.5-2.1,1.8
	c1.5,0.7,2.2,1.6,2.7,2.5c1.1,2,1.1,3,1.1,4.9v3c0,1.6,0,5.7-3.4,8.2c-1.2,1-3.3,1.9-6.7,1.9H4.6V27.1H12.1z M10.2,43.3h2.7
	c1.9,0,3-0.8,3.6-1.5c0.7-0.8,1.1-2.1,1.1-3.4v-2.4c0-1-0.5-2-1.1-2.7c-0.7-0.7-1.8-1.3-3.6-1.3h-2.6V43.3z M10.2,61.3h2.5
	c0.8,0,2.6-0.1,3.8-1.7c1-1.3,1-3.3,1-4v-1.9c0-1.9-0.3-3.3-1.5-4.3c-0.9-0.7-1.7-1-3-1h-2.9V61.3z"/>
<path class="st0" d="M29.3,27.1H46v5.3H34.9V44h9.8V49h-9.8v12h11.2v5.3H29.3V27.1z"/>
<path class="st0" d="M69.8,27.1v5.3h-7v34h-5.6v-34h-7v-5.3H69.8z"/>
<path class="st0" d="M86.8,36.9c0-0.8-0.1-2.5-1-3.6c-0.5-0.6-1.3-1.3-3-1.3c-0.8,0-1.9,0.2-2.7,1.1c-1.1,1.1-1.2,2.7-1.2,4
	c0,1.1,0.2,3,0.9,4.1c0.6,1,1.7,1.4,2.6,1.7l3.4,1.2c1.7,0.6,3.6,1.3,5.1,3.4c1.5,2.1,1.7,4.3,1.7,6.8v1.3c0,4-1.1,7-2.7,8.7
	c-1.5,1.5-4,2.6-7.3,2.6c-4,0-6.6-1.6-7.9-3.4C73,61.1,73,57.4,73,56.9v-1.3h5.6v1.1c0,0.9,0.1,2.5,0.9,3.5c1,1.2,2.4,1.3,3.1,1.3
	c2.1,0,3.1-0.8,3.5-1.4c0.8-1.1,0.9-2.7,0.9-3.9v-1.5c0-1.3-0.2-3-0.9-4c-0.7-1-2.1-1.5-2.7-1.7l-4.1-1.5c-2-0.7-4-1.7-5.2-4.4
	c-0.8-1.8-0.8-3.8-0.8-5.7v-1.1c0-3.3,1.3-5.7,2.9-7.3c1.9-1.8,4.2-2.4,6.8-2.4c5.6,0,9.4,3.6,9.4,10.2v1.3h-5.6V36.9z"/>
</svg>
