<?xml version="1.0" encoding="utf-8"?>
<!-- Generator: Adobe Illustrator 21.0.0, SVG Export Plug-In . SVG Version: 6.00 Build 0)  -->
<svg version="1.1" id="Layer_1" xmlns="http://www.w3.org/2000/svg" xmlns:xlink="http://www.w3.org/1999/xlink" x="0px" y="0px"
	 viewBox="0 0 390.2 103.2" style="enable-background:new 0 0 390.2 103.2;" xml:space="preserve">
<style type="text/css">
	.st0{fill:#2D4878;}
</style>
<path class="st0" d="M205.5,1c-28.1,0-50.9,22.8-50.9,50.9c0,28.1,22.8,50.9,50.9,50.9c28.1,0,50.9-22.8,50.9-50.9
	C256.4,23.8,233.6,1,205.5,1z M235.8,53.3c-0.8,16.1-14.2,29-30.5,29c-16.9,0-30.6-13.7-30.6-30.6c0-6.6,2.1-12.8,5.7-17.8
	c1.6-2.2,3.8-2.4,4.4-2.2c0,0,0.2,0.5,0.6,1.3c0.4,0.9,0.9,1.3,1.4,1.3c0.8,0,1.6-0.8,2.3-2.5c0.9-2.2,1.9-3.7,2.9-4.5
	c1.1-0.8,2.1-1.4,3.1-1.8c0.4-0.1,0.7-0.1,1.1-0.2c0.5-0.1,0.8-0.3,0.8-0.6c0-0.6-0.3-1.1-0.9-1.5c2.6-1.1,5.8-1.6,9.7-1.6
	c3.5,0,5.4,0.5,5.4,0.5c2.6,0.7,4.7,2,4.5,2.8c-0.2,0.8-1.4,1.3-2.7,1.1c-1.3-0.2-3.6,0.8-5.1,2.2c-1.5,1.4-2.4,3-2.1,3.7
	c0.3,0.6,0.8,1.3,1.1,1.4c0.3,0.1,0.8,0.5,1,0.8c0.2,0.3,0.7,0.5,1,0.3c0.3-0.2,0.6-0.9,0.5-1.5c0-0.6,0.6-1.7,1.4-2.3
	c0.8-0.6,1.5-0.2,1.4,0.8c0,1.1-0.5,2.5-1.1,3.2c-0.5,0.7-1.9,1.7-3.1,2.2c-1.2,0.5-4.9-0.1-5.9,1.2c-0.6,0.9,1.3,1.7,0.1,2.3
	c-0.7,0.4-1.6,0-2,0.8c-0.4,0.7-0.6,2,0,2.5c0.8,0.7,2.9-0.3,3-1.1c0.2-1,0.9-0.9,1.5-0.8c0.6,0.1,1.4-0.1,1.9-0.5
	c0.4-0.4,1.2-0.4,1.7,0c0.5,0.4,1.2,1.2,1.4,1.9c0.2,0.7,0.4,1.1-0.5,1.6c-0.3,0.2-0.2,0.6,0.2,0.8c0.4,0.2,1.4,0.1,1.8-0.1
	c0.4-0.2,0.6-1,0.7-1.3c0.1-0.3,0.8-0.1,1-0.3c0.3-0.2,0.1-0.4-0.4-1.1c-0.6-0.7-1.7-1-1.8-2.3c-0.1-0.5,1.1-0.6,2.2-0.6
	c1.1,0,2.3,1.2,2.5,2.6c0.3,1.4,0.8,2.6,1.3,2.6c0.5,0,0.5,2.4-0.4,2.6c-0.9,0.2-2.7,0.4-4.3-0.1c-2.7-0.8-6.1-1.4-7-1.6
	c-1.1-0.2-1.9-0.9-2.8-1c-1.6-0.2-3.7,1.5-3.7,1.5c-2.2,0.8-3.7,2.3-3.9,3.7c-0.3,1.4-0.2,3.3,0.2,4.3c0.4,1,2,2.1,3.6,2.4
	c1.6,0.4,4,2.3,5.4,4.3c1.1,4.4,1.5,8,1.5,8c0.3,2.7,1.2,5.4,2.1,6c0.8,0.6,4.4-0.2,5.7-2.7c1.3-2.4,0.8-9,1.2-10.2
	c0.3-1.2,4-4,4.2-5.2c0.3-1.1-0.3-2.7-0.3-2.7c-1.1-2.5-1.8-4.7-1.6-4.8c0.2-0.1,0.9,1,1.6,2.5c0.7,1.5,2.1,2.4,3.3,2
	c1.2-0.4,1.4-2.2,0.5-4c2.8-0.3,5.5-0.3,8,0c2.5,0.2,4.5,1.2,4.9,1.7C235.9,52.3,235.8,53.3,235.8,53.3z"/>
<path class="st0" d="M0.7,51.8c0-14.3,11.4-23.9,26-23.9c3.3,0,7.7,0.5,10.9,1.6V34c-3.2-1.4-7.5-2.2-10.6-2.2
	c-12.2,0-21.6,8.4-21.6,20.2c0,12.2,10.1,20.1,21.3,20.1c3,0,7.8-0.8,10.9-2.1v4.4c-3.3,1.2-8.3,1.6-10.9,1.6
	C11.5,76,0.7,66.4,0.7,51.8z"/>
<path class="st0" d="M46.5,28.6H51v46.6h-4.5V28.6z"/>
<path class="st0" d="M80.9,75.2h-4.5V32.5H58.9v-3.9h39.3v3.9H80.9V75.2z"/>
<path class="st0" d="M120.7,75.1h-4.6V55.5L98.4,28.7h5.3l15,22.8l14.8-22.8h5.2l-17.9,26.8V75.1z"/>
<path class="st0" d="M276.8,40.6c0-3.6,0.3-7.1,3.5-10.1c2-1.9,4.8-3.1,8.3-3.1c3.5,0,6.3,1.2,8.3,3.1c3.3,3.1,3.5,6.5,3.5,10.1
	v22.5c0,3.6-0.3,7.1-3.5,10.1c-2,1.9-4.8,3.1-8.3,3.1c-3.5,0-6.3-1.2-8.3-3.1c-3.3-3.1-3.5-6.5-3.5-10.1V40.6z M293.7,39.6
	c0-1.4-0.1-2.8-1.4-4.1c-0.7-0.7-2-1.4-3.7-1.4c-1.7,0-2.9,0.6-3.7,1.4c-1.3,1.3-1.4,2.7-1.4,4.1v24.6c0,1.4,0.1,2.8,1.4,4.1
	c0.7,0.7,2,1.4,3.7,1.4c1.7,0,2.9-0.6,3.7-1.4c1.3-1.3,1.4-2.7,1.4-4.1V39.6z"/>
<path class="st0" d="M317.5,28.2c2,0,6,0.2,9,2.3c4.3,3.1,4.3,8.1,4.3,10.9c0,3.1-0.3,5.3-2,7.4c-0.9,1.1-1.9,1.8-2.6,2.2
	c1.8,0.8,2.6,2,3.3,3c1.4,2.4,1.4,3.7,1.4,6v3.6c0,2,0,6.9-4.1,9.9c-1.5,1.2-4,2.2-8.1,2.2h-10.3V28.2H317.5z M315.1,47.8h3.3
	c2.3,0,3.7-0.9,4.3-1.8c0.8-0.9,1.3-2.6,1.3-4.1v-2.9c0-1.2-0.5-2.4-1.3-3.3c-0.8-0.8-2.2-1.6-4.4-1.6h-3.2V47.8z M315.1,69.5h3.1
	c1,0,3.2-0.1,4.6-2.1c1.2-1.6,1.2-4,1.2-4.8v-2.2c0-2.3-0.3-3.9-1.8-5.2c-1.1-0.9-2.1-1.2-3.6-1.2h-3.5V69.5z"/>
<path class="st0" d="M338,40.6c0-3.6,0.3-7.1,3.5-10.1c2-1.9,4.8-3.1,8.3-3.1c3.5,0,6.3,1.2,8.3,3.1c3.3,3.1,3.5,6.5,3.5,10.1v22.5
	c0,3.6-0.3,7.1-3.5,10.1c-2,1.9-4.8,3.1-8.3,3.1c-3.5,0-6.3-1.2-8.3-3.1c-3.3-3.1-3.5-6.5-3.5-10.1V40.6z M355,39.6
	c0-1.4-0.1-2.8-1.4-4.1c-0.7-0.7-2-1.4-3.7-1.4c-1.7,0-2.9,0.6-3.7,1.4c-1.3,1.3-1.4,2.7-1.4,4.1v24.6c0,1.4,0.1,2.8,1.4,4.1
	c0.7,0.7,2,1.4,3.7,1.4c1.7,0,2.9-0.6,3.7-1.4c1.3-1.3,1.4-2.7,1.4-4.1V39.6z"/>
<path class="st0" d="M390,28.2v5.2l-14.2,36.2h13.9v6.1h-21v-6l13.9-35.4h-13v-6.1H390z"/>
</svg>
