<svg version="1.1" xmlns="http://www.w3.org/2000/svg" width="30" height="30" viewBox="0 0 30 30">
<title>logo</title>
<path fill="#000" d="M15 0.469c-7.94 0-14.516 6.576-14.516 14.546 0 8.061 6.425 14.516 14.516 14.516s14.516-6.455 14.516-14.516c0-7.97-6.425-14.546-14.516-14.546M23.728 15.379c-0.273 4.546-4.061 8.213-8.728 8.213-4.788 0-8.698-3.909-8.698-8.728 0-1.879 0.606-3.637 1.636-5.031 0.485-0.636 1.121-0.636 1.242-0.636 0 0 0.152 0.121 0.152 0.364 0.121 0.273 0.242 0.394 0.364 0.394 0.242 0 0.515-0.242 0.636-0.758 0.242-0.636 0.515-1 0.879-1.273 0.242-0.242 0.636-0.364 0.879-0.485 0.121 0 0.273 0 0.394 0s0.242-0.152 0.242-0.152c0-0.121-0.121-0.242-0.242-0.364 0.636-0.394 1.636-0.515 2.758-0.515 1.030 0 1.515 0.121 1.515 0.121 0.758 0.273 1.394 0.515 1.273 0.758 0 0.273-0.364 0.394-0.758 0.273-0.364 0-1 0.242-1.394 0.636-0.364 0.364-0.636 0.879-0.636 1 0.152 0.121 0.273 0.364 0.394 0.364s0.242 0.152 0.242 0.273c0.121 0.121 0.273 0.121 0.273 0.121 0.121 0 0.121-0.121 0.121-0.394 0-0.121 0.121-0.485 0.364-0.606 0.273-0.152 0.394 0 0.394 0.242s-0.121 0.758-0.273 0.879c-0.121 0.242-0.485 0.515-0.879 0.636-0.364 0.121-1.394 0-1.636 0.364-0.121 0.273 0.394 0.515 0 0.636-0.242 0.121-0.515 0-0.515 0.273-0.121 0.242-0.121 0.606 0 0.758 0.273 0.242 0.909-0.152 0.909-0.273 0-0.242 0.242-0.242 0.364-0.242s0.394 0 0.515-0.121c0.121-0.121 0.364-0.121 0.485 0 0.152 0.121 0.394 0.364 0.394 0.485 0.121 0.152 0.121 0.394-0.121 0.515-0.121 0-0.121 0.121 0 0.242 0.121 0 0.364 0 0.485 0 0.152-0.121 0.152-0.242 0.273-0.364 0-0.121 0.242 0 0.242-0.121 0.121 0 0-0.121-0.121-0.394-0.121-0.242-0.515-0.242-0.515-0.636 0-0.121 0.394-0.121 0.636-0.121 0.394 0 0.636 0.394 0.758 0.758 0.121 0.394 0.242 0.758 0.394 0.758 0.121 0 0.121 0.636-0.152 0.758-0.242 0.121-0.758 0.121-1.242 0-0.758-0.242-1.788-0.364-2.030-0.485-0.364 0-0.515-0.273-0.758-0.273-0.515 0-1 0.394-1 0.394-0.636 0.242-1.030 0.636-1.152 1-0.121 0.394 0 0.879 0.121 1.273 0.152 0.242 0.636 0.636 1.030 0.636 0.485 0.121 1.121 0.606 1.515 1.242 0.364 1.273 0.364 2.273 0.364 2.273 0.121 0.758 0.394 1.515 0.636 1.636 0.242 0.152 1.273-0.121 1.636-0.758 0.394-0.758 0.273-2.515 0.394-2.879 0.121-0.394 1.121-1.152 1.242-1.515 0.152-0.394-0.121-0.758-0.121-0.758-0.242-0.758-0.485-1.394-0.485-1.394s0.242 0.242 0.485 0.758c0.121 0.364 0.636 0.636 0.879 0.485 0.394-0.121 0.394-0.606 0.152-1.121 0.758-0.121 1.515-0.121 2.273 0s1.242 0.364 1.364 0.515c0.152 0.121 0.152 0.364 0.152 0.364"></path>
</svg>
