<svg version="1.1" xmlns="http://www.w3.org/2000/svg" width="175" height="30" viewBox="0 0 175 30">
<path fill="#2d4778" d="M7.662 8.135v1.851h-2.419v11.797h-1.946v-11.797h-2.419v-1.851h6.784z"></path>
<path fill="#2d4778" d="M12.122 8.135c1 0 2.432-0.054 3.351 1.068 0.446 0.541 0.716 1.365 0.716 2.378v1.027c0 0.878-0.311 1.703-0.716 2.162-0.297 0.338-0.689 0.568-1.027 0.703l2.149 6.297h-2.027l-1.892-5.892h-1.149v5.892h-1.959v-13.649h2.554zM11.514 14.135h1.108c0.432 0 0.838-0.095 1.203-0.446 0.392-0.365 0.405-0.703 0.405-1.23v-0.973c0-0.527-0.189-1-0.446-1.243-0.392-0.392-0.865-0.351-1.27-0.351h-1.014c0.014 0 0.014 4.243 0.014 4.243z"></path>
<path fill="#2d4778" d="M23.149 21.784l-0.649-2.919h-2.5l-0.649 2.919h-1.946l2.986-13.649h1.716l2.986 13.649h-1.946zM21.216 11.932l-1.014 5.189h2.068l-1.054-5.189z"></path>
<path fill="#2d4778" d="M29.527 21.784h-1.716l-2.892-13.649h2.149l1.581 9.432h0.081l1.635-9.446h2.054l-2.892 13.662z"></path>
<path fill="#2d4778" d="M34.122 8.135h5.797v1.851h-3.838v4.014h3.378v1.757h-3.392v4.176h3.905v1.851h-5.851v-13.649z"></path>
<path fill="#2d4778" d="M44.108 8.135v11.797h4.135v1.851h-6.081v-13.649h1.946z"></path>
<path fill="#2d4778" d="M67.946 0.514c-7.973 0-14.446 6.473-14.446 14.446s6.473 14.446 14.446 14.446c7.973 0 14.446-6.473 14.446-14.446s-6.459-14.446-14.446-14.446zM76.568 15.351c-0.23 4.581-4.014 8.216-8.649 8.216-4.784 0-8.662-3.878-8.662-8.662 0-1.878 0.595-3.622 1.622-5.041 0.446-0.622 1.068-0.676 1.23-0.635 0 0 0.068 0.122 0.176 0.378 0.122 0.257 0.243 0.378 0.392 0.378 0.243 0 0.459-0.243 0.662-0.716 0.257-0.608 0.527-1.041 0.838-1.27 0.297-0.23 0.595-0.405 0.892-0.5 0.108-0.014 0.216-0.041 0.324-0.054 0.149-0.041 0.23-0.095 0.23-0.176 0-0.162-0.081-0.297-0.257-0.432 0.73-0.311 1.649-0.459 2.757-0.459 1 0 1.541 0.149 1.541 0.149 0.743 0.203 1.324 0.568 1.284 0.784-0.041 0.23-0.378 0.365-0.757 0.311s-1.027 0.23-1.432 0.608c-0.419 0.392-0.689 0.865-0.608 1.041 0.081 0.189 0.23 0.365 0.324 0.392s0.216 0.135 0.284 0.23c0.068 0.095 0.189 0.135 0.297 0.081 0.095-0.054 0.162-0.243 0.149-0.432s0.176-0.473 0.405-0.635c0.243-0.176 0.419-0.068 0.405 0.243-0.014 0.297-0.149 0.703-0.297 0.892s-0.554 0.473-0.878 0.622c-0.338 0.149-1.392-0.041-1.676 0.351-0.189 0.257 0.365 0.473 0.027 0.662-0.203 0.108-0.446 0-0.554 0.216-0.108 0.203-0.162 0.581 0 0.716 0.216 0.189 0.824-0.081 0.865-0.311 0.054-0.27 0.257-0.257 0.432-0.23s0.405-0.041 0.527-0.149c0.122-0.108 0.338-0.108 0.486 0s0.324 0.351 0.392 0.527c0.068 0.189 0.122 0.311-0.149 0.459-0.095 0.054-0.068 0.162 0.041 0.216s0.392 0.041 0.5-0.027c0.108-0.068 0.176-0.284 0.203-0.378 0.014-0.095 0.216-0.041 0.297-0.081 0.095-0.054 0.041-0.108-0.122-0.324-0.162-0.203-0.473-0.284-0.514-0.649-0.014-0.135 0.311-0.189 0.635-0.176s0.649 0.351 0.716 0.743c0.068 0.405 0.243 0.73 0.365 0.73 0.135 0 0.135 0.676-0.122 0.743s-0.77 0.108-1.23-0.014c-0.77-0.216-1.716-0.405-2-0.459-0.311-0.054-0.541-0.27-0.784-0.297-0.459-0.054-1.054 0.432-1.054 0.432-0.635 0.216-1.041 0.649-1.108 1.041-0.081 0.392-0.041 0.946 0.068 1.216 0.122 0.27 0.581 0.581 1.014 0.689 0.446 0.108 1.135 0.662 1.541 1.23 0.324 1.23 0.432 2.257 0.432 2.257 0.081 0.77 0.351 1.541 0.581 1.689 0.23 0.162 1.257-0.068 1.622-0.757s0.243-2.554 0.338-2.905c0.095-0.351 1.122-1.149 1.189-1.459 0.068-0.324-0.081-0.77-0.081-0.77-0.297-0.716-0.5-1.338-0.446-1.378s0.257 0.284 0.446 0.716c0.189 0.432 0.608 0.676 0.932 0.568 0.324-0.122 0.392-0.622 0.135-1.122 0.784-0.081 1.568-0.068 2.257-0.014 0.689 0.068 1.27 0.351 1.392 0.486 0.149 0.23 0.135 0.5 0.135 0.5z"></path>
<path fill="#2d4778" d="M88.176 11.703c0-1.041 0.081-2.027 1.014-2.905 0.581-0.541 1.392-0.878 2.405-0.878s1.811 0.338 2.405 0.878c0.932 0.878 1.014 1.878 1.014 2.905v6.486c0 1.041-0.081 2.027-1.014 2.905-0.581 0.541-1.392 0.878-2.405 0.878s-1.811-0.338-2.405-0.878c-0.932-0.878-1.014-1.878-1.014-2.905v-6.486zM93.054 11.405c0-0.405-0.041-0.824-0.405-1.189-0.216-0.216-0.568-0.392-1.054-0.392s-0.838 0.176-1.054 0.392c-0.365 0.365-0.405 0.784-0.405 1.189v7.068c0 0.405 0.041 0.824 0.405 1.189 0.216 0.216 0.568 0.392 1.054 0.392s0.838-0.176 1.054-0.392c0.365-0.365 0.405-0.784 0.405-1.189v-7.068z"></path>
<path fill="#2d4778" d="M99.905 8.108c0.581 0 1.716 0.054 2.581 0.662 1.23 0.878 1.243 2.338 1.243 3.149 0 0.892-0.081 1.527-0.581 2.122-0.257 0.311-0.541 0.514-0.743 0.622 0.527 0.23 0.757 0.568 0.932 0.865 0.392 0.689 0.392 1.054 0.392 1.716v1.041c0 0.568 0 1.973-1.176 2.851-0.432 0.338-1.149 0.649-2.324 0.649h-2.973v-13.676h2.649zM99.216 13.77h0.932c0.662 0 1.054-0.27 1.243-0.514 0.23-0.27 0.365-0.743 0.365-1.176v-0.838c0-0.351-0.162-0.703-0.365-0.932-0.23-0.23-0.622-0.446-1.27-0.446h-0.919l0.014 3.905zM99.216 20.014h0.878c0.297 0 0.919-0.041 1.324-0.608 0.338-0.446 0.351-1.149 0.351-1.392v-0.649c0-0.662-0.095-1.135-0.527-1.5-0.311-0.257-0.608-0.351-1.041-0.351h-1l0.014 4.5z"></path>
<path fill="#2d4778" d="M105.797 11.703c0-1.041 0.081-2.027 1.014-2.905 0.581-0.541 1.392-0.878 2.405-0.878s1.811 0.338 2.405 0.878c0.932 0.878 1.014 1.878 1.014 2.905v6.486c0 1.041-0.081 2.027-1.014 2.905-0.581 0.541-1.392 0.878-2.405 0.878s-1.811-0.338-2.405-0.878c-0.932-0.878-1.014-1.878-1.014-2.905v-6.486zM110.676 11.405c0-0.405-0.041-0.824-0.405-1.189-0.216-0.216-0.568-0.392-1.054-0.392s-0.838 0.176-1.054 0.392c-0.365 0.365-0.405 0.784-0.405 1.189v7.068c0 0.405 0.041 0.824 0.405 1.189 0.216 0.216 0.568 0.392 1.054 0.392s0.838-0.176 1.054-0.392c0.365-0.365 0.405-0.784 0.405-1.189v-7.068z"></path>
<path fill="#2d4778" d="M120.743 8.108v1.5l-4.095 10.405h4v1.757h-6.054v-1.716l4-10.189h-3.73v-1.757h5.878z"></path>
<path fill="#2d4778" d="M125.351 8.108c1 0 2.446-0.054 3.351 1.068 0.446 0.541 0.716 1.365 0.716 2.378v1.041c0 0.878-0.311 1.703-0.716 2.162-0.297 0.338-0.689 0.568-1.041 0.703l2.149 6.311h-2.027l-1.892-5.892h-1.149v5.892h-1.946v-13.662h2.554zM124.743 14.122h1.108c0.432 0 0.838-0.095 1.216-0.446 0.392-0.365 0.405-0.703 0.405-1.23v-0.973c0-0.527-0.189-1-0.446-1.243-0.392-0.392-0.865-0.351-1.27-0.351h-1.014v4.243z"></path>
<path fill="#2d4778" d="M131.473 8.108h5.797v1.851h-3.851v4.027h3.392v1.757h-3.392v4.176h3.905v1.851h-5.851v-13.662z"></path>
<path fill="#2d4778" d="M142.824 21.77h-1.716l-2.892-13.662h2.149l1.581 9.446h0.081l1.635-9.446h2.054l-2.892 13.662z"></path>
<path fill="#2d4778" d="M150.919 21.77l-0.649-2.932h-2.5l-0.649 2.932h-1.946l2.986-13.662h1.716l2.986 13.662h-1.946zM148.986 11.919l-1.014 5.189h2.068l-1.054-5.189z"></path>
<path fill="#2d4778" d="M159.189 8.108v1.851h-2.419v11.811h-1.946v-11.811h-2.419v-1.851h6.784z"></path>
<path fill="#2d4778" d="M160.757 8.108h5.797v1.851h-3.851v4.027h3.392v1.757h-3.392v4.176h3.905v1.851h-5.851v-13.662z"></path>
<path fill="#2d4778" d="M170.419 8.108v11.811h4.135v1.851h-6.095v-13.662h1.959z"></path>
</svg>
