<?xml version="1.0" encoding="utf-8"?>
<!-- Generator: Adobe Illustrator 21.0.0, SVG Export Plug-In . SVG Version: 6.00 Build 0)  -->
<svg version="1.1" id="Layer_1" xmlns="http://www.w3.org/2000/svg" xmlns:xlink="http://www.w3.org/1999/xlink" x="0px" y="0px"
	 viewBox="0 0 345 87" style="enable-background:new 0 0 345 87;" xml:space="preserve">
<style type="text/css">
	.st0{fill:#2D4878;}
	.st1{fill:#2C4674;}
</style>
<g id="Слой_2">
</g>
<g>
	<path class="st0" d="M186.8,1.4c-23.3,0-42.1,18.9-42.1,42.1c0,23.3,18.9,42.1,42.1,42.1c23.3,0,42.1-18.9,42.1-42.1
		C228.9,20.3,210.2,1.4,186.8,1.4z M211.9,44.7c-0.7,13.4-11.7,24-25.3,24c-14,0-25.3-11.3-25.3-25.3c0-5.5,1.7-10.6,4.7-14.7
		c1.3-1.8,3.1-2,3.6-1.9c0,0,0.2,0.4,0.5,1.1s0.7,1.1,1.2,1.1c0.7,0,1.3-0.7,1.9-2.1c0.7-1.8,1.6-3,2.4-3.7c0.9-0.7,1.7-1.2,2.6-1.5
		c0.3-0.1,0.6-0.1,0.9-0.2c0.4-0.1,0.7-0.3,0.7-0.5c0-0.5-0.2-0.9-0.7-1.3c2.1-0.9,4.8-1.4,8-1.4c2.9,0,4.5,0.4,4.5,0.4
		c2.2,0.6,3.8,1.6,3.7,2.3c-0.1,0.7-1.1,1.1-2.2,0.9s-3,0.7-4.2,1.8c-1.2,1.1-2,2.5-1.8,3s0.7,1.1,0.9,1.1c0.3,0.1,0.6,0.4,0.8,0.7
		c0.2,0.3,0.6,0.4,0.8,0.2c0.3-0.2,0.5-0.7,0.4-1.3c0-0.5,0.5-1.4,1.2-1.9s1.2-0.2,1.2,0.7c0,0.9-0.4,2.1-0.9,2.6
		c-0.4,0.6-1.6,1.4-2.6,1.8c-1,0.4-4.1-0.1-4.9,1c-0.5,0.7,1.1,1.4,0.1,1.9c-0.6,0.3-1.3,0-1.6,0.6c-0.3,0.6-0.5,1.7,0,2.1
		c0.6,0.6,2.4-0.2,2.5-0.9c0.1-0.8,0.8-0.8,1.3-0.7s1.2-0.1,1.5-0.4c0.3-0.3,1-0.3,1.4,0s1,1,1.1,1.6c0.2,0.5,0.3,0.9-0.4,1.3
		c-0.3,0.2-0.2,0.5,0.1,0.6c0.3,0.2,1.2,0.1,1.5-0.1c0.3-0.2,0.5-0.8,0.6-1.1s0.6-0.1,0.9-0.2c0.3-0.2,0.1-0.3-0.3-0.9
		c-0.5-0.6-1.4-0.8-1.5-1.9c-0.1-0.4,0.9-0.5,1.9-0.5c0.9,0,1.9,1,2.1,2.2s0.7,2.1,1.1,2.1s0.4,2-0.3,2.2c-0.7,0.2-2.3,0.3-3.6-0.1
		c-2.3-0.6-5-1.2-5.8-1.3c-0.9-0.1-1.6-0.8-2.3-0.9c-1.4-0.2-3.1,1.3-3.1,1.3c-1.8,0.6-3,1.9-3.3,3c-0.2,1.1-0.1,2.7,0.2,3.5
		c0.3,0.8,1.7,1.7,3,2s3.3,1.9,4.5,3.6c0.9,3.6,1.3,6.6,1.3,6.6c0.3,2.3,1,4.5,1.7,4.9c0.7,0.5,3.7-0.2,4.7-2.2c1.1-2,0.7-7.4,1-8.5
		c0.3-1,3.3-3.3,3.5-4.3c0.2-0.9-0.2-2.2-0.2-2.2c-0.9-2.1-1.5-3.9-1.3-4s0.8,0.8,1.3,2.1c0.5,1.2,1.8,2,2.7,1.6
		c1-0.4,1.1-1.8,0.4-3.3c2.3-0.2,4.6-0.2,6.6,0s3.7,1,4.1,1.4C212.1,43.9,211.9,44.7,211.9,44.7z"/>
	<path class="st0" d="M245.8,34c0-3,0.2-5.9,3-8.5c1.7-1.6,4-2.6,7-2.6c3,0,5.3,1,7,2.6c2.7,2.6,3,5.5,3,8.5v18.9c0,3-0.2,5.9-3,8.5
		c-1.7,1.6-4,2.6-7,2.6c-3,0-5.3-1-7-2.6c-2.7-2.6-3-5.5-3-8.5V34z M260,33.2c0-1.2-0.1-2.4-1.2-3.5c-0.6-0.6-1.7-1.1-3.1-1.1
		c-1.4,0-2.4,0.5-3.1,1.1c-1.1,1.1-1.2,2.3-1.2,3.5v20.6c0,1.2,0.1,2.4,1.2,3.5c0.6,0.6,1.7,1.1,3.1,1.1c1.4,0,2.4-0.5,3.1-1.1
		c1.1-1.1,1.2-2.3,1.2-3.5V33.2z"/>
	<path class="st0" d="M280,23.6c1.7,0,5,0.2,7.5,1.9c3.6,2.6,3.6,6.8,3.6,9.2c0,2.6-0.2,4.4-1.7,6.2c-0.7,0.9-1.6,1.5-2.2,1.8
		c1.5,0.7,2.2,1.7,2.7,2.5c1.1,2,1.1,3.1,1.1,5v3c0,1.7,0,5.8-3.4,8.3c-1.3,1-3.4,1.9-6.8,1.9h-8.7V23.5L280,23.6L280,23.6z
		 M278,40.1h2.7c1.9,0,3.1-0.8,3.6-1.5c0.7-0.8,1.1-2.2,1.1-3.4v-2.4c0-1-0.5-2-1.1-2.7c-0.7-0.7-1.8-1.3-3.7-1.3h-2.7v11.3H278z
		 M278,58.3h2.6c0.9,0,2.7-0.1,3.9-1.8c1-1.3,1-3.4,1-4v-1.9c0-1.9-0.3-3.3-1.5-4.4c-0.9-0.7-1.8-1-3-1h-2.9v13.1H278z"/>
	<path class="st0" d="M297.2,34c0-3,0.2-5.9,3-8.5c1.7-1.6,4-2.6,7-2.6s5.3,1,7,2.6c2.7,2.6,3,5.5,3,8.5v18.9c0,3-0.2,5.9-3,8.5
		c-1.7,1.6-4,2.6-7,2.6s-5.3-1-7-2.6c-2.7-2.6-3-5.5-3-8.5V34z M311.4,33.2c0-1.2-0.1-2.4-1.2-3.5c-0.6-0.6-1.7-1.1-3.1-1.1
		s-2.4,0.5-3.1,1.1c-1.1,1.1-1.2,2.3-1.2,3.5v20.6c0,1.2,0.1,2.4,1.2,3.5c0.6,0.6,1.7,1.1,3.1,1.1s2.4-0.5,3.1-1.1
		c1.1-1.1,1.2-2.3,1.2-3.5V33.2z"/>
	<path class="st0" d="M340.8,23.6V28l-12,30.4h11.7v5.1h-17.6v-5l11.7-29.7h-10.9v-5.1h17.1V23.6z"/>
	<path class="st1" d="M41.5,20.5c-0.2-1.7-1-3.2-2.4-4.3c-1.3-1.1-2.9-1.6-4.8-1.7c-1.3,0-3,0.3-4.9,1s-4.5,1.8-7.6,3.3l-0.1,0.1
		c-0.9,0.8-1.7,1.4-2.5,1.7c-0.9,0.4-1.2,0.5-1.4,0.6c0,0-0.1,0-0.2,0c-0.2,0-0.4,0.2-0.5,0.5l-1.6,1.6c-1.1,0.7-2.5,2.2-4.5,4.5
		c-1.9,2.3-3.2,4-3.7,5.3c-0.7,1.5-1.1,3.1-1.1,4.8c0,1.3,0.2,2.5,0.6,3.6s0.9,2,1.6,2.7c0.6,1.1,1.7,2.3,3.4,3.6
		c1.7,1.4,3.2,2.4,4.4,2.9l1.4,0.7c0.8,0.5,1.5,0.8,2.3,1.1c0.7,0.7,1.3,1.2,1.5,1.5c0.4,0.4,0.8,0.7,1,1s0.4,0.5,0.5,0.8l0.1,0.1
		c0.4,0.7,0.7,1.3,0.7,1.7s-0.2,0.8-0.6,1.2c-0.5,0.4-1.3,0.9-2.5,1.4C19,61,17,61.4,15.1,61.4c-1.6,0-3.1-0.3-4.4-0.8
		c-1.2-0.5-2.1-1.2-2.6-2.1c-0.3-0.5-0.5-0.9-0.7-1.1c-0.3-0.4-0.7-0.5-0.9-0.5c-0.5,0-0.9,0.2-1.2,0.4c-0.2,0.1-0.4,0.2-0.6,0.3
		c-0.4,0.3-0.5,0.6-0.5,0.8c0,0.1,0,0.2,0.5,1.4c0.3,0.8,0.8,1.7,1.6,2.7C7.1,63.5,8,64.4,9,65l0.1,0.1h0.1c0.1,0,0.6,0,0.7,0.2
		l-0.2,0.6l3.3,1h0.1c0.5,0,1,0,1.6,0c1.2,0,2.5-0.1,3.8-0.2c2.6-0.3,3.4-0.6,3.8-0.9c0.3-0.1,0.6-0.3,0.9-0.5
		c0.3-0.2,0.6-0.3,1-0.4l0,0c0.7,0,1.4-0.4,2.3-1.2c0.8-0.8,1.4-1.6,1.8-2.5v-0.1c0.1-0.6,0.2-1.2,0.2-1.9c0-1.9-0.6-3.7-1.6-5.2
		c-0.5-1-1.5-2.1-3.2-3.4c-1.6-1.3-3.6-2.6-6-4c-1.8-1-3.2-2.1-4.4-3.2c-1.1-1.1-1.8-1.9-2-2.7c-0.1-0.3-0.2-0.7-0.2-1.1
		c0-0.7,0.2-1.4,0.5-2.3c0.3-0.9,0.8-1.7,1.3-2.5c1-1.8,1.9-3.1,2.6-4.1c0.7-0.9,1.5-1.6,2.2-2.1c0.5-0.2,0.9-0.5,1.2-0.7
		c0.4-0.3,0.6-0.6,0.7-0.9c0.2-0.2,1.1-0.9,4.8-3.1c3.6-2.2,4.6-2.7,4.8-2.8c0.2,0,0.3,0,0.4-0.1c0.2-0.1,0.3-0.3,0.3-0.5v-0.1
		c0.2-0.1,0.9-0.3,2.7-0.6c2.6-0.5,3.4-0.4,3.6-0.4h0.1c0.3,0,0.5,0.1,0.5,0.7c0,1.2-0.9,3.2-2.7,5.7C33,27,32.3,27.9,32,28.5
		c-0.4,0.6-0.5,1.2-0.5,1.6c-0.1,0.6,0,1.1,0.2,1.4c0.1,0.2,0.4,0.6,1.1,0.6c0.6,0,1.4-0.3,2.7-0.8c1.6-0.9,3-2.4,4.3-4.4
		c1.2-2,1.9-3.9,1.9-5.7C41.6,21.2,41.6,20.7,41.5,20.5z"/>
	<path class="st1" d="M71.6,57.1c-1.8-0.3-2-0.6-2-0.5c0,0-0.1-0.3-0.2-1.5c-0.1-1.1-0.1-1.8-0.2-2.1c0-0.8,0-1.4-0.1-1.7v-1.7
		c0-0.8,0-1.4-0.2-1.9c-0.1-0.5-0.4-1-0.9-1.5c-1.8-2.6-4.4-2.3-8.7,1.1c-0.7,0.6-1.5,1.2-2.3,1.9c-0.1,0.1-0.2,0.2-0.3,0.2
		c0-0.1,0-0.1,0.1-0.2c0.3-0.9,0.5-1.7,0.7-2.4c0.1-0.4,0.2-0.8,0.2-1c0-0.9-0.3-1.7-0.8-2.2c-0.2-0.2-0.5-0.5-0.8-0.9
		c-0.4-0.4-0.8-0.7-1.1-0.9c-0.4-0.2-0.9-0.3-1.6-0.3h-0.2c-1.1,0.3-2.6,1.1-4.5,2.3s-3.6,2.5-5,3.8c-0.6,0.4-1.1,0.9-1.5,1.3
		C42,49,42,49,41.9,49.1c0.1-0.4,0.3-0.8,0.5-1.4c0.6-1.6,1-2.8,1.4-3.5l0.8-1.9c0.4-0.9,0.6-1.8,0.6-2.6c0-1-0.3-1.8-0.8-2.4
		c-0.6-0.6-1.3-0.9-2.1-0.9c-0.6,0-1.2,0.2-1.7,0.6c-0.5,0.5-0.8,1.1-0.8,1.8c0,0.6-0.2,1.5-0.6,2.7c-0.8,1.8-1.3,3.1-1.7,4
		c-0.3,0.9-0.6,1.6-0.6,2.2l-0.4,1.4c0,0.2-0.2,0.9-0.7,2.9c-0.6,2.4-0.8,3.9-0.8,4.7c0,0.6,0.1,1.1,0.3,1.5
		c0.4,1.6,1.6,2.4,3.2,2.4c0.3,0,0.5-0.1,1.5-1.5c1.2-1.7,2.2-2.8,2.8-3.3l1.7-1.6c1.6-1.5,2.6-2.6,3.1-3.2c0.4-0.2,0.8-0.6,1.3-1.1
		c0.4-0.4,0.6-0.5,0.7-0.6h0.2l0.1-0.3c0.1-0.1,0.3-0.5,1.2-0.9c0.4-0.2,0.8-0.4,1-0.5l0,0c-0.2,0.6-0.8,2.1-1.8,4.4l-1.6,4.6
		l-0.1,0.6v0.1c0,0.5,0.2,1,0.7,1.4l0.7,0.6c0.8,0.7,1.7,0.9,2.7,0.2c0.4-0.2,0.8-0.6,1.2-1.1c0.4-0.4,0.7-0.8,0.9-1
		c2-2.1,3.9-4,5.9-5.6c2.2-1.8,3.1-2.1,3.4-2.2c0,0.1,0.1,0.4,0.1,1l-0.1,3.2c0,2.2,0.3,3.7,1,4.7c0.6,1,1.4,1.6,2.1,1.9
		c0.8,0.3,1.6,0.5,2.5,0.5c1,0,1.8-0.2,2.5-0.7c0.8-0.5,1.1-1.1,1.1-1.7C73.3,58.3,73.1,57.4,71.6,57.1z"/>
	<path class="st1" d="M100.8,56.1c-0.6-0.1-1.2-0.3-1.9-0.7c-0.6-0.4-1-0.8-1.2-1.3c-1-1.5-1.4-3.1-1.4-4.8c0-1,0.2-2,0.6-3.2
		l1.4-3.8l-2.8-2.5c-2.4-2.2-3-2.8-3.1-2.9l-0.1-0.1c-0.7-0.5-1.5-0.8-2.5-0.8c-1.3,0-2.6,0.4-3.8,1.3c-1,0.6-2.3,1.7-3.8,3.4
		c-2.1,2.2-2.4,3-2.4,3.4l0,0c-0.1,0.1-0.2,0.2-0.4,0.3c-0.2,0.2-0.3,0.4-0.3,0.6c-0.2,0.2-0.4,0.5-0.8,1.1c-0.4,0.7-0.8,1.1-1,1.4
		l-0.1,0.1c-1.2,2.1-2.1,4.1-2.8,5.8c-0.7,1.9-1.1,3.2-1.1,4c0,0.5,0.1,0.8,0.3,1c0.1,0.2,0.2,0.5,0.2,0.8s0.2,0.5,0.6,1
		c0.3,0.3,0.4,0.5,0.6,0.7l0.1,0.1l0.1,0.1c0.8,0.5,1.8,0.8,2.8,0.8c3.1,0,7.1-2.5,12.3-7.7c0.4-0.4,0.8-0.8,1.2-1.4
		c0.1-0.2,0.3-0.3,0.4-0.5c0.1,0.2,0.1,0.4,0.2,0.6c0.3,0.8,0.6,1.3,0.7,1.6c2.1,4,4.6,6,7.5,6c0.4,0,0.7,0,0.9-0.1
		c1.1-0.2,1.7-1,1.7-2.2C102.8,57.5,102.6,56.4,100.8,56.1z M82.1,54.3c-0.7,0.6-1.4,1-2.1,1.4c-0.6,0.3-1.1,0.5-1.6,0.6l0.4-1
		c0.3-0.8,0.7-1.6,1.1-2.3c1.7-3.2,3.6-6.1,5.6-8.5c2.6-3,3.7-3.4,4.2-3.4c0.3,0,0.6,0.2,1,0.5s0.8,0.9,1.2,1.7l-1.4,2.2
		C88.9,48,86.1,51,82.1,54.3z"/>
	<path class="st1" d="M128.3,59.2c-0.4-1.3-1.3-1.5-1.8-1.5s-1.1,0.1-1.9,0.5c-0.5,0.2-0.9,0.3-1.2,0.3c-0.7,0-1.3-0.3-2-0.8
		c-0.6-0.6-1.1-1.4-1.5-2.4c0-0.3-0.2-0.7-0.9-1.7l-1.1-1.8c-0.3-0.4-0.6-1-1-1.6c-0.2-0.3-0.3-0.6-0.4-0.8c0.5-0.3,1.7-1.1,4.7-3
		c0.6-0.4,1.2-0.7,1.9-1.1c0.6-0.4,1.3-0.8,1.9-1.2c0.9-0.6,1.6-1,2-1.4c0.5-0.5,0.7-0.9,0.7-1.4s-0.2-0.9-0.5-1.3
		c-0.3-0.4-0.6-0.7-0.9-0.9c-0.7-0.6-1.5-0.5-2.7,0.1l-0.1,0.1c0,0-0.2,0.2-1.2,0.8c-0.7,0.4-1.3,0.8-1.6,0.9
		c-0.3,0.1-0.9,0.4-2.7,1.6c-0.3,0.2-0.6,0.4-1,0.7c-0.4,0.2-0.7,0.5-1.2,0.7c-0.6,0.4-1.2,0.8-1.8,1.1l-0.3,0.1
		c0.4-1.4,1.8-4.9,6-14c1.2-2.5,2.3-4.8,3-6.9c0.8-2.1,1.1-3.6,1.1-4.4c0-0.6-0.3-1.3-0.9-2.1c-0.7-0.9-1.1-1.3-1.5-1.3
		c-0.6,0-1,0.1-1.3,0.4c-0.2,0-0.5,0.2-0.7,0.4c-0.2,0.3-0.4,0.6-0.4,1.1c-0.2,0.7-1.1,3-2.7,6.7l-2.4,5.6c-0.8,2.2-1.9,4.7-3.2,7.5
		l-1.3,3.2c-1.4,3.3-2.3,5.5-2.8,6.4c0,0.1-0.2,0.6-0.5,1.5c-0.2,0.8-0.5,1.5-0.9,2l-1.4,4.3l-1,2.9v0.2c0,0.8,0.3,1.8,1,2.8
		s1.3,1.6,2,1.8h0.2c0.9,0,1.5-0.2,1.9-0.6c0.3-0.4,0.5-1,0.5-1.9v-0.1c-0.1-0.2-0.1-0.9,0.5-3.1c0.4-1.7,0.9-3.1,1.3-4.3
		c0.1-0.2,0.3-0.5,0.6-0.9c0.2-0.4,0.5-0.6,0.7-0.8c0,0,0.2-0.1,0.5-0.1c0.1,0.2,0.2,0.3,0.4,0.6s0.2,0.4,0.2,0.4v0.2l0.6,0.9
		c0.2,0.3,0.4,0.7,0.6,1.1c0.6,1.3,0.7,1.6,0.7,1.6v0.2l0.1,0.1c1.9,2.4,3.3,4.1,4.4,5.1c1.1,1,2,1.5,2.9,1.5
		c0.6,0.2,1.1,0.3,1.6,0.3c1.4,0,2.8-0.7,4.1-2c0.9-0.9,1.1-1.3,1.1-1.6C128.4,59.7,128.3,59.5,128.3,59.2z"/>
</g>
</svg>
