<svg version="1.1" xmlns="http://www.w3.org/2000/svg" width="5765" height="1024" viewBox="0 0 5765 1024">
<style type="text/css">
	.st0{fill:#2D4878;}
</style>
<path class="st0" d="M769.64 409.923c-22.279 31.19-44.355 65.924-66.227 104-21.874 38.177-42.937 77.873-63.19 119.392-20.253 41.418-37.569 80-51.848 115.747-19.646 49.519-34.431 85.266-44.456 107.341s-20.051 38.785-30.076 50.228c-10.025 11.342-21.063 17.012-33.114 17.012-22.785 0-43.95-12.456-63.494-37.468-7.595-8.911-16.709-18.531-27.443-28.759s-17.924-18.633-21.772-25.114c-3.848-6.481-5.67-14.988-5.67-25.721s1.722-35.645 5.063-74.937c3.342-39.19 6.582-85.368 9.721-138.43 3.038-53.064 5.569-122.836 7.291-209.316-16.911 35.645-32.304 70.177-46.177 103.696-13.773 33.013-28.050 69.772-42.836 110.38-14.684 40.608-25.62 71.291-32.709 92.253-8 22.279-18.937 61.468-32.709 117.367-13.874 56-27.443 96.607-40.81 122.025-13.367 26.329-32.304 39.494-56.911 39.494-11.139 0-37.873-15.797-80.304-47.493-34.33-25.013-51.443-54.178-51.443-87.696 0-13.367 7.493-38.38 22.38-74.937s31.089-73.114 48.506-109.671c17.417-36.557 31.19-65.317 41.418-86.278 26.734-54.887 51.038-102.076 72.912-141.772 21.874-40.101 48.607-84.76 80.304-133.772 31.696-49.519 69.367-105.621 113.013-168.506v-42.127c0-26.329 3.747-45.67 11.342-58.228 7.595-12.355 23.393-18.633 47.493-18.633 8 0 15.797 1.519 23.393 4.659s19.443 6.278 35.443 9.316c30.278 4.861 52.76 13.266 67.24 25.114s21.772 34.937 21.772 69.266c0 74.026-9.114 199.493-27.443 376.507 19.139-37.468 44.962-82.127 77.265-134.076s67.949-104.203 107.038-156.86c38.987-52.557 76.151-95.696 111.595-129.418 35.443-33.621 64.811-50.532 88-50.532 11.139 0 20.557 2.633 28.050 8 8 5.367 16.303 14.076 24.811 26.126 8.911 12.051 15.392 20.76 19.342 26.126 8.506 8.911 16.506 17.417 24.102 25.417s13.975 16.911 19.038 26.734c5.164 9.823 7.696 20.76 7.696 32.81s-6.481 34.127-19.342 66.227c-12.962 32.101-29.975 74.026-51.241 125.773-21.165 51.747-41.823 110.076-61.874 174.886-20.051 64.912-37.468 136.506-52.152 214.988-3.14 16.506-7.493 52.456-13.064 108.050-5.569 55.493-12.76 96.607-21.772 123.342-8.911 26.734-23.899 40.101-44.861 40.101-8.911 0-17.62-2.026-26.025-5.974-8.506-4.051-18.228-10.025-29.468-18.025-11.139-8-19.139-13.57-24.102-16.709-12.962-8-24.203-14.988-33.722-20.76-9.62-5.772-17.316-13.773-23.089-24.102-5.772-10.228-8.709-25.62-8.709-46.177 0-29.468 7.291-74.329 21.772-134.785 14.583-60.354 45.266-172.456 92.051-336.102z"></path>
<path class="st0" d="M1425.741 364.455c44.152 14.684 75.645 34.33 94.684 58.835 18.937 24.507 28.456 61.063 28.456 109.671 0 57.519-18.329 120.81-54.887 189.974-36.557 69.063-83.848 127.392-141.772 174.886s-116.658 71.19-175.899 71.19c-39.696 0-74.127-11.241-103.393-33.823-29.164-22.481-51.443-51.443-66.835-86.987-15.392-35.443-23.089-71.696-23.089-108.658 0-54.887 12.355-110.785 37.164-167.898 24.709-57.114 61.165-110.987 109.367-161.823 21.874-23.19 57.316-53.772 106.329-91.646s84.962-56.81 107.645-56.81c22.785 0 39.696 9.215 50.835 27.747 11.038 18.633 21.57 43.747 31.393 75.342zM1354.146 454.784c-30.278 14.684-59.747 39.899-88.304 75.544s-51.747 75.443-69.57 119.392c-17.823 43.95-26.734 84.355-26.734 121.418 0 23.595 7.088 35.443 21.367 35.443 21.874 0 46.582-17.62 74.228-52.861s51.241-77.164 70.886-125.773c19.646-48.607 29.468-91.139 29.468-127.696 0.101-13.367-3.747-28.557-11.342-45.468z"></path>
<path class="st0" d="M1924.272 706.936l-17.316 4.051c-15.189 28.557-41.013 68.455-77.468 119.696-36.962 50.835-75.038 95.898-114.228 135.089-39.696 38.785-71.899 58.228-96.911 58.228-15.089 0-37.164-16.506-66.126-49.519-29.367-33.418-44.051-58.633-44.051-75.544 0-14.684 6.683-27.443 20.051-38.076 13.773-11.139 38.076-25.417 72.81-42.836 34.735-17.823 64.405-33.924 88.81-48.202 24.507-14.279 50.329-33.418 77.569-57.519-40.101-2.633-71.595-19.646-94.583-50.835s-34.431-65.721-34.431-103.696c0-43.241 13.975-83.139 42.025-119.696s62.785-67.949 104.203-94.279c41.418-26.329 81.722-46.582 120.911-60.861s68.354-21.367 87.493-21.367c16 0 28.253 5.569 36.759 16.709s13.57 23.899 15.392 38.076c18.734-35.645 40.506-53.469 65.518-53.469 6.683 0 13.165 1.519 19.342 4.659 6.683 3.14 14.279 7.595 22.684 13.367 8.911 5.772 15.392 9.823 19.342 12.051 20.051 11.544 33.722 20.557 41.114 26.734 7.291 6.278 11.038 18.025 11.038 35.443 0 16.506-10.025 46.582-30.076 90.329-8.911 20.051-21.772 58.835-38.38 116.354-16.709 57.519-32.203 115.848-46.379 174.886-14.279 59.038-22.988 102.684-26.025 130.734-4.456 40.101-10.329 71.291-17.721 93.671-7.392 22.279-22.38 33.418-45.064 33.418-7.088 0-29.164-5.772-66.126-17.417-28.050-8.506-48.304-16.506-60.76-24.102-12.051-6.683-18.025-20.253-18.025-40.81 0-11.544 1.519-25.013 4.659-40.101 3.14-15.189 9.924-41.114 20.354-77.873 10.329-36.86 18.228-65.924 23.595-87.291zM1995.766 445.366c-50.835 11.544-91.038 26.936-120.911 46.177-29.873 19.139-44.76 38.785-44.76 58.835 0 21.367 11.747 32.101 35.443 32.101 18.228 0 49.924-12.051 94.886-36.151 7.088-22.177 18.835-55.898 35.341-100.962z"></path>
<path class="st0" d="M2651.867 803.847c52.253-116.354 100.152-235.848 143.798-358.48 7.595-21.367 19.342-61.367 35.443-120.101 16-58.633 30.278-106.025 42.431-142.076 12.253-36.151 27.645-67.24 46.177-93.266s40.203-39.088 65.216-39.088c15.594 0 33.114 5.569 52.456 16.709s35.848 25.316 49.519 42.431c13.57 17.215 20.354 34.026 20.354 50.532 0 10.734-2.937 26.43-8.709 47.19s-15.797 51.038-30.076 90.937c-14.279 39.899-33.013 90.633-56.202 152.203-20.557 53.975-38.683 100.557-54.481 139.747s-30.684 74.633-44.456 106.329c-13.367 32.101-21.57 51.848-24.405 59.139-2.937 7.392-4.355 14.178-4.355 20.456 0 13.773 8.304 20.76 24.811 20.76 12.051 0 40.81-4.456 86.278-13.367 45.468-112.81 84.659-219.341 117.671-319.696 17.823-52.658 36.759-111.494 56.81-176.607s35.848-112.709 47.493-142.785c11.544-30.076 24.608-53.975 39.088-71.494 14.481-17.62 32-26.43 52.456-26.43 15.189 0 32.709 5.468 52.861 16.405 20.051 10.937 37.063 23.899 51.139 38.785 13.975 14.988 21.063 27.949 21.063 39.088 0 29.873-38.38 145.823-115.038 347.746-15.189 40.608-42.836 118.582-82.937 234.025-39.696 115.443-70.076 185.013-90.937 208.709-20.962 23.595-47.088 37.266-78.278 40.81-31.696 3.14-120.405 6.886-266.228 11.342-45.974 1.317-81.114 2.431-105.621 3.342-25.013 0.911-49.924 2.026-74.937 3.342-25.417 0.911-49.316 1.823-71.494 2.633-22.785 0.911-42.127 1.317-58.228 1.317-42.329 0-74.937-10.734-97.62-32.101-23.19-21.874-38.582-45.367-46.177-70.582s-11.342-44.962-11.342-59.24c0-15.189 2.836-33.317 8.304-54.481 5.569-21.165 19.342-62.988 41.114-125.367 21.367-62.886 40-117.265 55.898-163.139 15.797-45.974 34.633-102.785 56.506-170.532 10.228-32.101 22.988-78.886 38.177-140.456 15.089-61.57 28.152-103.899 39.088-127.088s25.721-34.735 44.456-34.735c14.684 0 34.633 7.696 59.848 23.089s47.595 33.317 67.24 53.874c19.646 20.557 29.468 37.671 29.468 51.544 0 11.139-30.278 101.671-90.937 271.494-31.19 88.304-54.38 151.089-69.57 188.253-15.189 37.266-30.886 74.937-47.19 113.013s-24.405 60.557-24.405 67.24c0 11.139 2.228 18.531 6.683 22.076s10.937 5.367 19.443 5.367c9.013-0.101 36.455-2.937 82.329-8.81z"></path>
<path class="st0" d="M3550.804 672.809h-5.367c-19.139 50.835-33.013 87.595-41.418 110.38-8.506 22.279-15.594 42.127-21.367 59.544-4.051 11.544-8.81 26.227-14.38 43.848s-11.95 33.317-19.038 47.088c-6.683 13.773-15.189 25.215-25.417 34.127s-21.874 13.367-34.735 13.367c-5.772 0-11.544-1.519-17.417-4.659-5.772-3.545-13.266-8.911-22.38-16s-19.544-14.887-31.089-23.393c-16-11.544-28.050-22.076-36.151-31.393-8-9.316-12.051-21.671-12.051-36.759 0-14.684 13.773-50.835 41.418-108.354 33.924-73.114 63.798-140.658 89.62-202.633 25.417-62.38 48.607-118.177 69.57-167.189s37.873-81.62 50.835-97.62c12.962-16 28.253-24.102 46.177-24.102 8.405 0 22.076 4.355 40.81 13.064s35.341 18.835 49.823 30.38c14.481 11.544 21.772 22.076 21.772 31.393 0 8.911-9.924 34.735-29.772 77.569s-37.367 77.772-52.456 105.013c31.696-16.911 60.051-35.949 85.266-57.215 25.215-21.165 45.772-40.911 61.874-59.24 16-18.329 43.241-50.835 81.62-97.62 26.329-33.013 47.291-49.519 62.886-49.519 22.279 0 41.013 18.329 56.202 54.887 2.633 5.772 6.481 13.165 11.342 22.076s8.709 16.506 11.342 22.785c2.228 5.772 3.342 11.342 3.342 16.709 0 21.874-12.962 49.721-38.785 83.646-26.329 33.418-59.747 66.227-100.253 98.329-40.608 32.101-80.506 56.81-119.696 74.228 10.734 74.937 28.557 142.684 53.469 203.342 6.278 15.189 13.773 32.81 22.785 52.861 8.911 20.051 14.887 34.127 18.025 42.127s4.659 15.189 4.659 21.367c0 6.278-3.848 10.937-11.342 14.076-7.19 3.545-15.797 5.974-26.126 7.392-9.823 1.317-18.531 2.431-26.126 3.342-9.316 2.228-17.721 4.456-25.013 6.683-7.392 2.228-14.38 4.254-21.063 5.974-6.683 1.317-12.253 2.026-16.709 2.026-22.785 0-44.355-15.493-64.912-46.481s-37.266-71.696-50.127-122.025c-12.76-50.228-19.24-101.266-19.646-153.418z"></path>
<path class="st0" d="M4372.676 364.455c44.152 14.684 75.645 34.33 94.684 58.835 18.937 24.507 28.456 61.063 28.456 109.671 0 57.519-18.329 120.81-54.887 189.974-36.557 69.063-83.848 127.392-141.772 174.886s-116.658 71.19-175.899 71.19c-39.696 0-74.127-11.241-103.291-33.823-29.164-22.481-51.443-51.443-66.835-86.987-15.392-35.443-23.089-71.696-23.089-108.658 0-54.887 12.355-110.785 37.164-167.898 24.709-57.114 61.165-110.987 109.367-161.823 21.772-23.19 57.316-53.772 106.329-91.646s84.962-56.81 107.645-56.81c22.684 0 39.595 9.215 50.835 27.747 11.038 18.633 21.57 43.747 31.291 75.342zM4301.183 454.784c-30.38 14.684-59.747 39.899-88.304 75.544s-51.747 75.443-69.57 119.392c-17.823 43.95-26.734 84.355-26.734 121.418 0 23.595 7.088 35.443 21.367 35.443 21.772 0 46.582-17.62 74.228-52.861s51.241-77.164 70.886-125.773c19.646-48.607 29.468-91.139 29.468-127.696 0-13.367-3.848-28.557-11.342-45.468z"></path>
<path class="st0" d="M4830.196 616.607l-5.367-1.317c-20.557 42.836-49.519 94.886-86.987 156.151s-74.735 113.823-111.696 157.468c-36.962 43.646-66.227 65.518-87.595 65.518-10.734 0-23.595-6.683-38.785-20.051-15.594-13.773-29.468-29.468-41.418-46.784-11.544-17.823-17.417-31.19-17.417-40.101 0-10.734 4.051-22.177 12.051-34.431s25.822-35.341 53.469-69.266c27.645-33.924 59.038-74.228 94.279-121.013 35.645-46.784 76.86-104.81 123.747-173.874 9.316-13.367 30.785-46.379 64.203-98.936 33.418-52.658 57.924-86.987 73.519-102.988 15.594-16.101 32.304-24.102 50.127-24.102 12.051 0 28.962 4.051 50.835 12.051s41.519 18.025 58.835 30.076c16.506 11.544 24.811 23.19 24.811 34.735 0 8.506-3.545 36.455-10.734 83.95-7.088 47.493-13.367 95.999-18.734 145.418-4.861 49.924-7.797 107.645-8.709 173.165 0 13.367 0.203 32.507 0.709 57.519 0.405 25.417 0.709 43.747 0.709 54.887 0 41.418-4.963 72.912-14.785 94.279-9.316 21.367-27.848 32.101-55.493 32.101-8.911 0-17.316-1.317-25.114-4.051-7.797-2.633-17.924-7.797-30.38-15.392-12.557-8-19.24-12.253-20.152-12.658-12.456-6.278-22.481-11.241-30.076-15.089-7.595-3.747-14.279-8.607-20.051-14.38-6.683-5.772-11.848-13.469-15.392-23.089-3.646-9.519-5.367-22.177-5.367-37.772 0-17.823 2.026-40.405 5.974-67.848 4.051-27.443 9.114-57.924 15.392-91.646 6.379-33.621 11.544-61.165 15.594-82.532z"></path>
<path class="st0" d="M5399.309 891.441l-5.974-1.317c-43.747 52.658-89.823 78.886-138.43 78.886-49.013 0-86.886-22.076-113.62-66.227-26.329-43.646-39.494-93.874-39.494-150.481 0-47.696 10.43-96.101 31.494-145.114 20.962-49.013 50.633-95.19 88.911-138.43 17.417-20.051 45.873-46.379 85.57-78.886s78.886-60.658 117.671-84.253c38.785-23.595 68.658-35.443 89.62-35.443 23.595 0 46.582 12.76 68.861 38.076 20.962-46.379 44.152-69.57 69.57-69.57 10.228 0 19.949 2.937 29.063 8.709s20.456 14.279 33.823 25.417c17.316 12.456 29.772 22.886 37.063 31.089 7.392 8.304 11.038 19.747 11.038 34.431 0 11.544-2.026 22.076-6.076 31.393s-14.279 29.164-30.785 59.544-31.494 60.861-44.861 91.646c-13.773 30.278-28.050 67.949-42.836 113.013-25.417 79.797-41.013 166.582-46.784 260.152-2.228 30.785-6.481 55.493-12.76 74.228s-19.848 28.050-40.81 28.050c-1.823 0-22.38-4.659-61.57-14.076-1.823-0.405-9.721-2.228-23.798-5.367s-25.114-6.683-33.114-10.734c-8-4.051-14.279-10.025-18.734-18.025-5.367-7.595-8-18.329-8-32.101 0.304-6.987 1.823-15.189 4.963-24.608zM5497.638 478.176c-29.468 11.139-59.544 31.696-90.329 61.57-30.278 29.873-55.292 63.089-74.937 99.645s-29.468 70.481-29.468 101.671c0 21.874 6.278 32.81 18.734 32.81 11.139 0 26.329-9.316 45.468-28.050s40.405-50.43 63.595-94.988c23.697-44.659 45.974-102.177 66.936-172.658z"></path>
</svg>
