<?xml version="1.0" encoding="utf-8"?>
<svg version="1.1" id="Layer_1" xmlns="http://www.w3.org/2000/svg" xmlns:xlink="http://www.w3.org/1999/xlink" x="0px" y="0px"
	 viewBox="0 0 290 85" style="enable-background:new 0 0 290 85;" xml:space="preserve">
<style type="text/css">
	.st0{fill:#2D4878;}
</style>
<path class="st0" d="M135.5,0.7c-23.3,0-42.1,18.9-42.1,42.1c0,23.3,18.9,42.1,42.1,42.1c23.3,0,42.1-18.9,42.1-42.1
	C177.6,19.5,158.8,0.7,135.5,0.7z M160.6,43.9c-0.7,13.4-11.7,24-25.3,24c-14,0-25.3-11.3-25.3-25.3c0-5.5,1.7-10.6,4.7-14.7
	c1.3-1.8,3.1-2,3.6-1.9c0,0,0.2,0.4,0.5,1.1s0.7,1.1,1.2,1.1c0.7,0,1.3-0.7,1.9-2.1c0.7-1.8,1.6-3,2.4-3.7c0.9-0.7,1.7-1.2,2.6-1.5
	c0.3-0.1,0.6-0.1,0.9-0.2c0.4-0.1,0.7-0.3,0.7-0.5c0-0.5-0.2-0.9-0.7-1.3c2.1-0.9,4.8-1.4,8-1.4c2.9,0,4.5,0.4,4.5,0.4
	c2.2,0.6,3.8,1.6,3.7,2.3c-0.1,0.7-1.1,1.1-2.2,0.9c-1.1-0.2-3,0.7-4.2,1.8c-1.2,1.1-2,2.5-1.8,3s0.7,1.1,0.9,1.1
	c0.3,0.1,0.6,0.4,0.8,0.7c0.2,0.3,0.6,0.4,0.8,0.2c0.3-0.2,0.5-0.7,0.4-1.3c0-0.5,0.5-1.4,1.2-1.9s1.2-0.2,1.2,0.7
	c0,0.9-0.4,2.1-0.9,2.6c-0.4,0.6-1.6,1.4-2.6,1.8s-4.1-0.1-4.9,1c-0.5,0.7,1.1,1.4,0.1,1.9c-0.6,0.3-1.3,0-1.6,0.6s-0.5,1.7,0,2.1
	c0.6,0.6,2.4-0.2,2.5-0.9c0.1-0.8,0.8-0.8,1.3-0.7s1.2-0.1,1.5-0.4c0.3-0.3,1-0.3,1.4,0s1,1,1.1,1.6c0.2,0.5,0.3,0.9-0.4,1.3
	c-0.3,0.2-0.2,0.5,0.1,0.6c0.3,0.2,1.2,0.1,1.5-0.1c0.3-0.2,0.5-0.8,0.6-1.1s0.6-0.1,0.9-0.2c0.3-0.2,0.1-0.3-0.3-0.9
	c-0.5-0.6-1.4-0.8-1.5-1.9c-0.1-0.4,0.9-0.5,1.9-0.5c0.9,0,1.9,1,2.1,2.2c0.2,1.2,0.7,2.1,1.1,2.1c0.4,0,0.4,2-0.3,2.2
	s-2.3,0.3-3.6-0.1c-2.3-0.6-5-1.2-5.8-1.3c-0.9-0.1-1.6-0.8-2.3-0.9c-1.4-0.2-3.1,1.3-3.1,1.3c-1.8,0.6-3,1.9-3.3,3
	c-0.2,1.1-0.1,2.7,0.2,3.5c0.3,0.8,1.7,1.7,3,2s3.3,1.9,4.5,3.6c0.9,3.6,1.3,6.6,1.3,6.6c0.3,2.3,1,4.5,1.7,4.9
	c0.7,0.5,3.7-0.2,4.7-2.2c1.1-2,0.7-7.4,1-8.5c0.3-1,3.3-3.3,3.5-4.3c0.2-0.9-0.2-2.2-0.2-2.2c-0.9-2.1-1.5-3.9-1.3-4
	s0.8,0.8,1.3,2.1c0.5,1.2,1.8,2,2.7,1.6c1-0.4,1.1-1.8,0.4-3.3c2.3-0.2,4.6-0.2,6.6,0s3.7,1,4.1,1.4
	C160.6,43.2,160.6,43.9,160.6,43.9z"/>
<path class="st0" d="M194.5,33.3c0-3,0.2-5.9,3-8.5c1.7-1.6,4-2.6,7-2.6s5.3,1,7,2.6c2.7,2.6,3,5.5,3,8.5v18.9c0,3-0.2,5.9-3,8.5
	c-1.7,1.6-4,2.6-7,2.6s-5.3-1-7-2.6c-2.7-2.6-3-5.5-3-8.5V33.3z M208.7,32.5c0-1.2-0.1-2.4-1.2-3.5c-0.6-0.6-1.7-1.1-3.1-1.1
	s-2.4,0.5-3.1,1.1c-1.1,1.1-1.2,2.3-1.2,3.5v20.6c0,1.2,0.1,2.4,1.2,3.5c0.6,0.6,1.7,1.1,3.1,1.1s2.4-0.5,3.1-1.1
	c1.1-1.1,1.2-2.3,1.2-3.5V32.5z"/>
<path class="st0" d="M228.7,22.8c1.7,0,5,0.2,7.5,1.9c3.6,2.6,3.6,6.8,3.6,9.2c0,2.6-0.2,4.4-1.7,6.2c-0.7,0.9-1.6,1.5-2.2,1.8
	c1.5,0.7,2.2,1.7,2.7,2.5c1.1,2,1.1,3.1,1.1,5v3c0,1.7,0,5.8-3.4,8.3c-1.3,1-3.4,1.9-6.8,1.9H221V22.8H228.7z M226.7,39.4h2.7
	c1.9,0,3.1-0.8,3.6-1.5c0.7-0.8,1.1-2.2,1.1-3.4V32c0-1-0.5-2.1-1.1-2.7c-0.7-0.7-1.8-1.3-3.7-1.3h-2.7V39.4z M226.7,57.6h2.6
	c0.9,0,2.7-0.1,3.9-1.8c1-1.3,1-3.4,1-4v-1.9c0-1.9-0.3-3.3-1.5-4.4c-0.9-0.7-1.8-1-3-1h-2.9V57.6z"/>
<path class="st0" d="M245.9,33.3c0-3,0.2-5.9,3-8.5c1.7-1.6,4-2.6,7-2.6c3,0,5.3,1,7,2.6c2.7,2.6,3,5.5,3,8.5v18.9
	c0,3-0.2,5.9-3,8.5c-1.7,1.6-4,2.6-7,2.6c-3,0-5.3-1-7-2.6c-2.7-2.6-3-5.5-3-8.5V33.3z M260.1,32.5c0-1.2-0.1-2.4-1.2-3.5
	c-0.6-0.6-1.7-1.1-3.1-1.1c-1.4,0-2.4,0.5-3.1,1.1c-1.1,1.1-1.2,2.3-1.2,3.5v20.6c0,1.2,0.1,2.4,1.2,3.5c0.6,0.6,1.7,1.1,3.1,1.1
	c1.4,0,2.4-0.5,3.1-1.1c1.1-1.1,1.2-2.3,1.2-3.5V32.5z"/>
<path class="st0" d="M289.5,22.8v4.4l-12,30.4h11.7v5.1h-17.7v-5L283.2,28h-10.9v-5.1H289.5z"/>
<path class="st0" d="M1,22.8h5.7l7.9,22h0.2l7.5-22H28v39.9h-5.7V37.8H22l-6,18h-3l-6-18H6.7v24.9H1V22.8z"/>
<path class="st0" d="M34.8,22.8h16.9v5.4H40.5V40h9.9v5.1h-9.9v12.2h11.4v5.4H34.8V22.8z"/>
<path class="st0" d="M65,22.8c2.4,0,5.8,0.1,8.3,2.4c2.9,2.7,3.1,6.9,3.1,8.6v17.6c0,2.7-0.3,5.6-2.6,8.1c-2.5,2.7-5.8,3.1-8,3.1
	h-8.5V22.8H65z M63,57.1h2.6c1.2,0,2.7-0.2,3.8-1.4c1.2-1.3,1.3-3.4,1.3-4.7V33.4c0-1.1-0.2-2.6-1.1-3.7c-1.1-1.3-2.3-1.3-3.7-1.3
	H63V57.1z"/>
</svg>
