<?xml version="1.0" encoding="UTF-8" standalone="no"?>
<svg
   xmlns:dc="http://purl.org/dc/elements/1.1/"
   xmlns:cc="http://creativecommons.org/ns#"
   xmlns:rdf="http://www.w3.org/1999/02/22-rdf-syntax-ns#"
   xmlns:svg="http://www.w3.org/2000/svg"
   xmlns="http://www.w3.org/2000/svg"
   viewBox="0 0 439.44135 112.38107"
   height="112.38107"
   width="439.44135"
   xml:space="preserve"
   id="svg2"
   version="1.1"><metadata
     id="metadata8"><rdf:RDF><cc:Work
         rdf:about=""><dc:format>image/svg+xml</dc:format><dc:type
           rdf:resource="http://purl.org/dc/dcmitype/StillImage" /></cc:Work></rdf:RDF></metadata><defs
     id="defs6"><clipPath
       id="clipPath18"
       clipPathUnits="userSpaceOnUse"><path
         id="path16"
         d="M 0,84.286 H 329.581 V 0 H 0 Z" /></clipPath></defs><g
     transform="matrix(1.3333333,0,0,-1.3333333,0,112.38107)"
     id="g10"><g
       id="g12"><g
         clip-path="url(#clipPath18)"
         id="g14"><g
           transform="translate(200.6882,41.0086)"
           id="g20"><path
             id="path22"
             style="fill:#2f5180;fill-opacity:1;fill-rule:nonzero;stroke:none"
             d="m 0,0 c -0.68,-13.355 -11.724,-23.975 -25.25,-23.975 -13.962,0 -25.283,11.317 -25.283,25.281 0,5.488 1.744,10.571 4.725,14.709 1.316,1.828 3.133,1.967 3.607,1.858 0.014,-0.003 0.194,-0.374 0.529,-1.116 0.336,-0.739 0.72,-1.113 1.156,-1.113 0.69,0 1.33,0.698 1.933,2.092 0.739,1.784 1.554,3.022 2.433,3.704 0.875,0.689 1.74,1.176 2.594,1.453 0.308,0.05 0.617,0.106 0.927,0.165 0.435,0.105 0.651,0.274 0.651,0.494 0,0.46 -0.247,0.879 -0.736,1.264 2.121,0.901 4.803,1.351 8.047,1.351 2.917,0 4.508,-0.442 4.508,-0.442 2.168,-0.601 3.847,-1.639 3.731,-2.302 -0.125,-0.652 -1.122,-1.068 -2.225,-0.907 -1.101,0.152 -2.988,-0.65 -4.189,-1.785 -1.205,-1.136 -1.993,-2.503 -1.761,-3.039 0.243,-0.538 0.659,-1.05 0.932,-1.143 0.268,-0.091 0.644,-0.394 0.835,-0.676 0.191,-0.282 0.571,-0.387 0.849,-0.223 0.277,0.158 0.47,0.722 0.435,1.253 -0.034,0.533 0.5,1.373 1.193,1.869 0.698,0.505 1.23,0.187 1.195,-0.691 -0.036,-0.885 -0.435,-2.054 -0.883,-2.609 -0.446,-0.561 -1.609,-1.375 -2.579,-1.826 -0.975,-0.445 -4.052,0.122 -4.878,-1.006 -0.536,-0.731 1.055,-1.395 0.068,-1.93 -0.604,-0.329 -1.292,-0.008 -1.626,-0.623 -0.333,-0.603 -0.488,-1.677 -0.007,-2.093 0.645,-0.561 2.396,0.249 2.509,0.887 0.138,0.793 0.753,0.763 1.255,0.672 0.5,-0.087 1.192,0.1 1.535,0.418 0.346,0.318 0.985,0.318 1.427,0 0.442,-0.318 0.957,-1.018 1.146,-1.555 0.184,-0.541 0.337,-0.924 -0.429,-1.345 -0.277,-0.154 -0.199,-0.469 0.127,-0.621 0.324,-0.151 1.152,-0.1 1.465,0.072 0.314,0.184 0.525,0.819 0.581,1.086 0.054,0.264 0.647,0.101 0.866,0.226 0.269,0.154 0.122,0.33 -0.347,0.937 -0.475,0.606 -1.366,0.829 -1.51,1.9 -0.053,0.381 0.92,0.535 1.851,0.494 0.938,-0.036 1.881,-1.016 2.094,-2.185 0.216,-1.167 0.7,-2.123 1.074,-2.123 0.375,0 0.396,-1.974 -0.343,-2.179 -0.738,-0.201 -2.256,-0.309 -3.598,0.053 -2.264,0.642 -5.021,1.2 -5.821,1.328 -0.921,0.145 -1.568,0.771 -2.281,0.852 -1.357,0.157 -3.055,-1.28 -3.055,-1.28 -1.835,-0.626 -3.027,-1.897 -3.25,-3.046 -0.226,-1.146 -0.133,-2.741 0.205,-3.541 0.336,-0.79 1.676,-1.699 2.975,-2.004 1.302,-0.316 3.319,-1.933 4.485,-3.593 0.944,-3.599 1.279,-6.601 1.279,-6.601 0.253,-2.262 1.025,-4.492 1.71,-4.946 0.689,-0.457 3.675,0.184 4.734,2.2 1.057,2.015 0.698,7.448 0.975,8.458 0.278,1.012 3.271,3.341 3.478,4.271 0.212,0.933 -0.233,2.244 -0.233,2.244 -0.887,2.099 -1.47,3.901 -1.298,4.011 0.171,0.107 0.759,-0.828 1.303,-2.084 0.547,-1.244 1.777,-1.983 2.731,-1.642 0.957,0.354 1.129,1.829 0.379,3.284 2.284,0.24 4.561,0.211 6.586,0.032 C -2.437,2.49 -0.749,1.65 -0.389,1.265 0.046,0.795 0,0 0,0 m -25.125,43.277 c -23.272,0 -42.139,-18.877 -42.139,-42.143 0,-23.278 18.867,-42.143 42.139,-42.143 23.274,0 42.136,18.865 42.136,42.143 0,23.266 -18.862,42.143 -42.136,42.143" /></g><g
           transform="translate(248.7839,52.4949)"
           id="g24"><path
             id="path26"
             style="fill:#2f5180;fill-opacity:1;fill-rule:nonzero;stroke:none"
             d="M 0,0 C 0,1.196 -0.113,2.392 -1.195,3.474 -1.822,4.1 -2.847,4.612 -4.271,4.612 -5.694,4.612 -6.72,4.1 -7.346,3.474 -8.428,2.392 -8.542,1.196 -8.542,0 v -20.614 c 0,-1.197 0.114,-2.392 1.196,-3.474 0.626,-0.627 1.652,-1.14 3.075,-1.14 1.424,0 2.449,0.513 3.076,1.14 1.082,1.082 1.195,2.277 1.195,3.474 z m -14.236,-0.854 c 0,3.018 0.227,5.922 2.961,8.485 1.709,1.594 4.044,2.562 7.004,2.562 2.961,0 5.296,-0.968 7.004,-2.562 2.734,-2.563 2.962,-5.467 2.962,-8.485 v -18.907 c 0,-3.017 -0.228,-5.922 -2.962,-8.484 -1.708,-1.595 -4.043,-2.563 -7.004,-2.563 -2.96,0 -5.295,0.968 -7.004,2.563 -2.734,2.562 -2.961,5.467 -2.961,8.484 z" /></g><g
           transform="translate(266.776,27.3817)"
           id="g28"><path
             id="path30"
             style="fill:#2f5180;fill-opacity:1;fill-rule:nonzero;stroke:none"
             d="M 0,0 H 2.563 C 3.416,0 5.238,0.114 6.435,1.766 7.402,3.075 7.46,5.125 7.46,5.809 v 1.878 c 0,1.937 -0.285,3.303 -1.538,4.385 -0.911,0.741 -1.765,1.026 -3.018,1.026 l -2.904,0 z m 0,18.223 h 2.733 c 1.936,0 3.076,0.797 3.645,1.48 0.683,0.797 1.082,2.164 1.082,3.417 v 2.449 c 0,1.025 -0.456,2.05 -1.082,2.733 -0.684,0.683 -1.822,1.31 -3.702,1.31 l -2.676,0 z m 1.993,16.514 c 1.708,0 5.011,-0.171 7.517,-1.936 3.588,-2.563 3.644,-6.834 3.644,-9.168 0,-2.62 -0.227,-4.442 -1.708,-6.207 -0.741,-0.911 -1.594,-1.482 -2.164,-1.822 1.537,-0.684 2.221,-1.652 2.734,-2.506 1.138,-1.994 1.138,-3.076 1.138,-5.011 V 5.068 c 0,-1.651 0,-5.752 -3.417,-8.314 C 8.484,-4.214 6.378,-5.125 2.961,-5.125 h -8.656 v 39.862 z" /></g><g
           transform="translate(300.1999,52.4949)"
           id="g32"><path
             id="path34"
             style="fill:#2f5180;fill-opacity:1;fill-rule:nonzero;stroke:none"
             d="M 0,0 C 0,1.196 -0.113,2.392 -1.195,3.474 -1.822,4.1 -2.847,4.612 -4.271,4.612 -5.694,4.612 -6.72,4.1 -7.346,3.474 -8.428,2.392 -8.542,1.196 -8.542,0 v -20.614 c 0,-1.197 0.114,-2.392 1.196,-3.474 0.626,-0.627 1.652,-1.14 3.075,-1.14 1.424,0 2.449,0.513 3.076,1.14 1.082,1.082 1.195,2.277 1.195,3.474 z m -14.236,-0.854 c 0,3.018 0.227,5.922 2.961,8.485 1.709,1.594 4.044,2.562 7.004,2.562 2.961,0 5.296,-0.968 7.004,-2.562 2.734,-2.563 2.962,-5.467 2.962,-8.485 v -18.907 c 0,-3.017 -0.228,-5.922 -2.962,-8.484 -1.708,-1.595 -4.043,-2.563 -7.004,-2.563 -2.96,0 -5.295,0.968 -7.004,2.563 -2.734,2.562 -2.961,5.467 -2.961,8.484 z" /></g><g
           transform="translate(329.5807,62.119)"
           id="g36"><path
             id="path38"
             style="fill:#2f5180;fill-opacity:1;fill-rule:nonzero;stroke:none"
             d="m 0,0 v -4.385 l -11.958,-30.352 h 11.674 v -5.125 h -17.653 v 5.01 L -6.264,-5.125 H -17.141 V 0 Z" /></g><g
           transform="translate(11.1291,51.2054)"
           id="g40"><path
             id="path42"
             style="fill:#2f5180;fill-opacity:1;fill-rule:nonzero;stroke:none"
             d="m 0,0 -2.968,-15.184 h 6.051 z m 5.651,-28.826 -1.884,8.562 H -3.54 l -1.882,-8.562 h -5.707 l 8.733,39.957 h 5.022 l 8.733,-39.957 z" /></g><g
           transform="translate(38.7111,52.3465)"
           id="g44"><path
             id="path46"
             style="fill:#2f5180;fill-opacity:1;fill-rule:nonzero;stroke:none"
             d="m 0,0 c 0,0.857 -0.058,2.512 -0.972,3.653 -0.513,0.63 -1.368,1.313 -3.025,1.313 -0.799,0 -1.882,-0.17 -2.796,-1.083 -1.085,-1.143 -1.199,-2.74 -1.199,-4.053 0,-1.085 0.172,-3.083 0.913,-4.166 0.628,-0.972 1.769,-1.43 2.626,-1.771 l 3.481,-1.255 c 1.713,-0.628 3.712,-1.371 5.194,-3.425 1.541,-2.112 1.713,-4.395 1.713,-6.907 v -1.371 c 0,-4.05 -1.083,-7.134 -2.74,-8.847 -1.483,-1.541 -4.109,-2.626 -7.42,-2.626 -4.053,0 -6.679,1.657 -7.992,3.483 -1.826,2.454 -1.826,6.221 -1.826,6.735 v 1.313 h 5.71 v -1.085 c 0,-0.914 0.113,-2.51 0.913,-3.54 0.969,-1.196 2.396,-1.31 3.139,-1.31 2.169,0 3.137,0.855 3.595,1.426 0.855,1.083 0.914,2.741 0.914,3.937 v 1.485 c 0,1.369 -0.172,3.081 -0.914,4.112 -0.741,1.026 -2.112,1.54 -2.739,1.768 l -4.167,1.485 c -2.054,0.741 -4.111,1.768 -5.252,4.45 -0.8,1.826 -0.855,3.825 -0.855,5.823 v 1.142 c 0,3.311 1.313,5.821 2.967,7.419 1.882,1.827 4.281,2.455 6.907,2.455 5.707,0 9.533,-3.709 9.533,-10.33 v -1.313 l -5.708,0 z" /></g><g
           transform="translate(66.8063,62.3367)"
           id="g48"><path
             id="path50"
             style="fill:#2f5180;fill-opacity:1;fill-rule:nonzero;stroke:none"
             d="m 0,0 v -5.424 h -7.078 v -34.533 h -5.708 v 34.533 h -7.078 V 0 Z" /></g><g
           transform="translate(77.092,44.7542)"
           id="g52"><path
             id="path54"
             style="fill:#2f5180;fill-opacity:1;fill-rule:nonzero;stroke:none"
             d="m 0,0 h 3.253 c 1.255,0 2.455,0.286 3.539,1.313 1.142,1.085 1.2,2.057 1.2,3.598 v 2.853 c 0,1.541 -0.572,2.912 -1.313,3.653 -1.141,1.141 -2.512,1.027 -3.711,1.027 l -2.968,0 z m 1.769,17.583 c 2.911,0 7.136,0.169 9.818,-3.14 1.313,-1.599 2.112,-3.997 2.112,-6.964 V 4.453 c 0,-2.568 -0.913,-4.966 -2.112,-6.335 C 10.731,-2.854 9.588,-3.537 8.561,-3.936 L 14.84,-22.375 H 8.905 L 3.367,-5.135 H 0 v -17.24 h -5.708 v 39.958 z" /></g><g
           transform="translate(110.839,52.6903)"
           id="g56"><path
             id="path58"
             style="fill:#2f5180;fill-opacity:1;fill-rule:nonzero;stroke:none"
             d="M 0,0 C 0,1.197 -0.114,2.396 -1.199,3.481 -1.827,4.109 -2.854,4.622 -4.28,4.622 -5.708,4.622 -6.734,4.109 -7.362,3.481 -8.447,2.396 -8.561,1.197 -8.561,0 v -20.664 c 0,-1.199 0.114,-2.398 1.199,-3.481 0.628,-0.627 1.654,-1.141 3.082,-1.141 1.426,0 2.453,0.514 3.081,1.141 1.085,1.083 1.199,2.282 1.199,3.481 z m -14.269,-0.857 c 0,3.025 0.228,5.937 2.968,8.505 1.713,1.599 4.053,2.568 7.021,2.568 2.967,0 5.307,-0.969 7.02,-2.568 2.74,-2.568 2.968,-5.48 2.968,-8.505 v -18.95 c 0,-3.025 -0.228,-5.937 -2.968,-8.505 -1.713,-1.598 -4.053,-2.57 -7.02,-2.57 -2.968,0 -5.308,0.972 -7.021,2.57 -2.74,2.568 -2.968,5.48 -2.968,8.505 z" /></g></g></g></g></svg>