<!-- Generated by IcoMoon.io -->
<svg version="1.1" xmlns="http://www.w3.org/2000/svg" width="30" height="30" viewBox="0 0 30 30">
<title>news-paper</title>
<path fill="#000" d="M5.175 29.298h21.018c0.158 0 0.316-0.035 0.456-0.105s3.351-1.667 3.351-4.877v-16.421c0-0.579-0.474-1.053-1.053-1.053h-3.684v-5.088c0-0.579-0.474-1.053-1.053-1.053h-23.158c-0.579 0-1.053 0.474-1.053 1.053v22.333c0 0.070 0 0.158 0.018 0.228 0.053 0.211 1.158 4.983 5.158 4.983zM2.105 2.807h21.053v19.825c0 0.579 0.474 1.053 1.053 1.053s1.053-0.474 1.053-1.053v-13.684h2.632v15.368c0 1.544-1.439 2.561-1.982 2.877h-20.737c-2.070 0-2.912-2.684-3.070-3.246v-21.14z"></path>
<path fill="#000" d="M12.281 7.368c0-0.579-0.474-1.053-1.053-1.053h-4.912c-0.579 0-1.053 0.474-1.053 1.053v5.614c0 0.579 0.474 1.053 1.053 1.053h4.912c0.579 0 1.053-0.474 1.053-1.053v-5.614zM7.368 8.421h2.807v3.509h-2.807v-3.509z"></path>
<path fill="#000" d="M5.965 23.86h13.684c0.579 0 1.053-0.474 1.053-1.053s-0.474-1.053-1.053-1.053h-13.684c-0.579 0-1.053 0.474-1.053 1.053s0.474 1.053 1.053 1.053z"></path>
<path fill="#000" d="M6.14 18.772h13.333c0.579 0 1.053-0.474 1.053-1.053s-0.474-1.053-1.053-1.053h-13.333c-0.579 0-1.053 0.474-1.053 1.053s0.474 1.053 1.053 1.053z"></path>
<path fill="#000" d="M15.614 8.596h4.035c0.579 0 1.053-0.474 1.053-1.053s-0.474-1.053-1.053-1.053h-4.035c-0.579 0-1.053 0.474-1.053 1.053s0.474 1.053 1.053 1.053z"></path>
<path fill="#000" d="M15.614 13.684h4.035c0.579 0 1.053-0.474 1.053-1.053s-0.474-1.053-1.053-1.053h-4.035c-0.579 0-1.053 0.474-1.053 1.053s0.474 1.053 1.053 1.053z"></path>
</svg>
