<?xml version="1.0" encoding="utf-8"?>
<!-- Generator: Adobe Illustrator 21.0.0, SVG Export Plug-In . SVG Version: 6.00 Build 0)  -->
<svg version="1.1" id="Слой_5" xmlns="http://www.w3.org/2000/svg" xmlns:xlink="http://www.w3.org/1999/xlink" x="0px" y="0px"
	 viewBox="0 0 20 20" style="enable-background:new 0 0 20 20;" xml:space="preserve">
<style type="text/css">
	.st0{fill:#FF0000;}
	.st1{fill:#FFFFFF;}
</style>
<g>
	<g>
		<path class="st0" d="M10,18c-4.4,0-8-3.6-8-8c0-4.4,3.6-8,8-8c4.4,0,8,3.6,8,8C18,14.4,14.4,18,10,18z"/>
	</g>
	<g>
		<g>
			<path class="st1" d="M10.6,12.6c-0.6,0-0.8-0.3-1.3-0.6c-0.2,1-0.4,2.1-1,2.8c-0.2,0.2-0.5,0.1-0.5-0.2c-0.1-1.7,0.5-3,0.8-4.4
				C8.1,9.3,8.7,7.4,9.8,7.9c1.4,0.6-1.2,3.4,0.5,3.7c1.8,0.4,2.6-3.2,1.4-4.3c-1.6-1.7-4.8,0-4.4,2.3c0.1,0.5,0.5,0.7,0.4,1.1
				c0,0.3-0.3,0.4-0.6,0.3c-0.7-0.3-1-1.1-0.9-2C6.4,7.2,8,6,9.5,5.8c2-0.2,3.8,0.7,4.1,2.6C13.9,10.5,12.7,12.7,10.6,12.6
				L10.6,12.6z"/>
		</g>
	</g>
</g>
</svg>
