<?xml version="1.0" encoding="utf-8"?>
<!-- Generator: Adobe Illustrator 21.0.0, SVG Export Plug-In . SVG Version: 6.00 Build 0)  -->
<svg version="1.1" id="Слой_6" xmlns="http://www.w3.org/2000/svg" xmlns:xlink="http://www.w3.org/1999/xlink" x="0px" y="0px"
	 viewBox="0 0 20 20" style="enable-background:new 0 0 20 20;" xml:space="preserve">
<style type="text/css">
	.st0{fill:url(#SVGID_1_);}
	.st1{fill:#F5F9FD;}
	.st2{fill:#A9C9DD;}
	.st3{fill:#C8DAEA;}
</style>
<g>
	<g>
		<linearGradient id="SVGID_1_" gradientUnits="userSpaceOnUse" x1="10" y1="2.6328" x2="10" y2="17.779">
			<stop  offset="0" style="stop-color:#39B0E3"/>
			<stop  offset="1" style="stop-color:#1D93D2"/>
		</linearGradient>
		<circle class="st0" cx="10" cy="10" r="8"/>
		<g>
			<path id="XMLID_7_" class="st1" d="M13.5,6.2L5.1,9.4c-0.3,0.1-0.3,0.6,0,0.7l2.9,0.8c0,0,0.1,0,0.1,0.1l3.4,2.8
				c0.3,0.3,0.8,0.1,0.9-0.3l1.3-6.8C13.9,6.3,13.7,6.1,13.5,6.2z"/>
			<path class="st2" d="M8.6,13.3l1-1.1l-1.2-1l-0.3,2.2C8.3,13.4,8.5,13.4,8.6,13.3z"/>
			<path class="st3" d="M12,7.7l-4.8,2.9l0.8,2.5c0,0.1,0.1,0.2,0.3,0.3l0.3-2.2l3.6-3.4C12.1,7.7,12.1,7.6,12,7.7z"/>
		</g>
	</g>
</g>
</svg>
