<?xml version="1.0" encoding="utf-8"?>
<!-- Generator: Adobe Illustrator 21.0.0, SVG Export Plug-In . SVG Version: 6.00 Build 0)  -->
<svg version="1.1" id="Слой_2" xmlns="http://www.w3.org/2000/svg" xmlns:xlink="http://www.w3.org/1999/xlink" x="0px" y="0px"
	 viewBox="0 0 20 20" style="enable-background:new 0 0 20 20;" xml:space="preserve">
<style type="text/css">
	.st0{fill:#33CCFF;}
	.st1{fill-rule:evenodd;clip-rule:evenodd;fill:#FFFFFF;}
</style>
<g>
	<g>
		<path class="st0" d="M17.9,5c-0.5,0.2-1.1,0.4-1.6,0.5c0.3,0,0.6-0.5,0.8-0.7c0.2-0.3,0.4-0.6,0.5-1c0,0,0-0.1,0-0.1
			c0,0-0.1,0-0.1,0C17,4,16.3,4.3,15.7,4.4c-0.1,0-0.1,0-0.1,0c-0.1-0.1-0.1-0.1-0.2-0.2c-0.3-0.2-0.6-0.4-0.9-0.6
			C14,3.5,13.5,3.4,13,3.4c-0.5,0-0.9,0.2-1.4,0.4c-0.4,0.2-0.8,0.5-1.1,0.9C10.2,5.1,10,5.5,9.9,6c-0.1,0.5-0.1,0.9,0,1.4
			c0,0.1,0,0.1-0.1,0.1C7.2,7.1,5,6.1,3.2,4.1C3.1,4,3.1,4,3,4.1c-0.8,1.2-0.4,3,0.6,4C3.7,8.2,3.9,8.3,4,8.4
			c-0.1,0-0.7-0.1-1.3-0.4C2.6,8,2.6,8,2.6,8.1c0,0.1,0,0.2,0,0.4c0.1,1.2,1,2.3,2.1,2.7c0.1,0.1,0.3,0.1,0.4,0.1
			c-0.3,0.1-0.5,0.1-1.2,0c-0.1,0-0.1,0-0.1,0.1c0.5,1.5,1.7,1.9,2.6,2.2c0.1,0,0.2,0,0.4,0c0,0,0,0,0,0c-0.3,0.4-1.3,0.8-1.8,0.9
			C4.1,15,3.1,15.1,2.2,15c-0.1,0-0.2,0-0.2,0c0,0,0,0.1,0,0.1c0.2,0.1,0.4,0.2,0.6,0.3c0.6,0.3,1.2,0.6,1.8,0.7
			c3.3,0.9,7,0.2,9.4-2.2c1.9-1.9,2.6-4.6,2.6-7.2c0-0.1,0.1-0.2,0.2-0.2c0.5-0.4,0.9-0.8,1.3-1.3C18,5.1,18,5,17.9,5
			C18,5,18,5,17.9,5C18,4.9,18,5,17.9,5z"/>
	</g>
	<g>
		<path class="st1" d="M6.8,16.5C8.1,16.5,6.8,16.5,6.8,16.5C6.9,16.5,6.7,16.5,6.8,16.5z"/>
	</g>
	<g>
		<path class="st1" d="M6.8,16.5C6.7,16.5,6.5,16.5,6.8,16.5C6.8,16.5,6.7,16.5,6.8,16.5z"/>
	</g>
	<g>
		<path class="st1" d="M7.3,16.5C7.3,16.5,7.6,16.5,7.3,16.5C7.3,16.5,7.3,16.5,7.3,16.5z"/>
	</g>
	<g>
		<path class="st1" d="M12.9,3.4C12.9,3.4,12.9,3.4,12.9,3.4C12.9,3.4,12.9,3.4,12.9,3.4z"/>
	</g>
</g>
</svg>
