<?xml version="1.0" encoding="utf-8"?>
<!-- Generator: Adobe Illustrator 21.0.0, SVG Export Plug-In . SVG Version: 6.00 Build 0)  -->
<svg version="1.1" id="Слой_1" xmlns="http://www.w3.org/2000/svg" xmlns:xlink="http://www.w3.org/1999/xlink" x="0px" y="0px"
	 viewBox="0 0 175 134" style="enable-background:new 0 0 175 134;" xml:space="preserve">
<style type="text/css">
	.st0{opacity:1;}
	.st1{fill:#FF0000;}
	.st2{fill:#FFFFFF;}
</style>
<g class="st0">
	<g>
		<path class="st1" d="M144.5,127.6c0,0-28,4.4-56.5,4.4s-57.5-4.4-57.5-4.4C18.6,126,10.1,120,8.2,110.6c0,0-5.7-14.7-5.7-44.1
			s5.7-43,5.7-43C10.1,14,18.6,8,30.5,6.4C30.5,6.4,59,2,87.3,2s57.2,4.4,57.2,4.4c11.9,1.6,20.4,7.6,22.3,17.1
			c0,0,5.7,13.8,5.7,43.2s-5.7,43.9-5.7,43.9C164.9,120,156.4,126,144.5,127.6z"/>
	</g>
	<polygon class="st2" points="130.6,66.8 60.6,26.4 60.6,107.2 	"/>
</g>
</svg>
