<?xml version="1.0" encoding="utf-8"?>
<!-- Generator: Adobe Illustrator 21.0.0, SVG Export Plug-In . SVG Version: 6.00 Build 0)  -->
<svg version="1.1" id="OBJECTS" xmlns="http://www.w3.org/2000/svg" xmlns:xlink="http://www.w3.org/1999/xlink" x="0px" y="0px"
	 viewBox="0 0 20 20" style="enable-background:new 0 0 20 20;" xml:space="preserve">
<style type="text/css">
	.st0{fill:#FF0000;}
	.st1{fill:#FFFFFF;}
</style>
<path class="st0" d="M19,8c0-0.2,0-0.4,0-0.6c-0.1-0.9-0.2-1.9-0.8-2.6c-0.5-0.6-1.3-0.7-2.1-0.8c-0.9-0.1-1.9-0.2-2.9-0.2
	c-1.9-0.1-3.9,0-5.8,0c-1,0-2,0-3,0.1C3.3,4,2,4.2,1.5,5.4C0.9,6.4,1,7.8,1,9c0,1,0,2.1,0,3.1c0.1,1.3,0.1,3.1,1.6,3.7
	c0.8,0.3,1.7,0.4,2.6,0.4c0.9,0.1,1.8,0.1,2.7,0.1c1.9,0,3.7,0,5.6-0.1c1.3,0,2.6,0,3.9-0.5c1.1-0.4,1.4-1.5,1.5-2.5
	c0.1-1,0.1-2,0.1-3C19,9.5,19,8.8,19,8z"/>
<path class="st1" d="M12.7,10C11.1,9.1,9.6,8.1,8,7.2c0,1.9,0,3.7,0,5.5C9.6,11.8,11.1,10.9,12.7,10z"/>
</svg>
